Muli-800-Heavy.ufo
<glyph name="exclam" format="1">
  <advance width="748.0"/>
  <unicode hex="0021"/>
  <outline>
    <contour>
      <point x="212.0" y="0.0" type="line"/>
      <point x="533.0" y="0.0" type="line"/>
      <point x="533.0" y="298.0" type="line"/>
      <point x="212.0" y="298.0" type="line"/>
    </contour>
    <contour>
      <point x="288.0" y="393.0" type="line"/>
      <point x="458.0" y="393.0" type="line"/>
      <point x="540.0" y="1456.0" type="line"/>
      <point x="204.0" y="1456.0" type="line"/>
    </contour>
  </outline>
</glyph>
<glyph name="percent" format="1">
  <advance width="1978.0"/>
  <unicode hex="0025"/>
  <outline>
    <contour>
      <point x="483.0" y="877.0" type="curve" smooth="yes"/>
      <point x="568.0" y="877.0"/>
      <point x="625.0" y="914.0"/>
      <point x="625.0" y="1083.0" type="curve" smooth="yes"/>
      <point x="625.0" y="1230.0"/>
      <point x="579.0" y="1294.0"/>
      <point x="481.0" y="1294.0" type="curve" smooth="yes"/>
      <point x="385.0" y="1294.0"/>
      <point x="339.0" y="1238.0"/>
      <point x="339.0" y="1085.0" type="curve" smooth="yes"/>
      <point x="339.0" y="920.0"/>
      <point x="398.0" y="877.0"/>
    </contour>
    <contour>
      <point x="485.0" y="701.0" type="curve" smooth="yes"/>
      <point x="261.0" y="701.0"/>
      <point x="102.0" y="833.0"/>
      <point x="102.0" y="1087.0" type="curve" smooth="yes"/>
      <point x="102.0" y="1332.0"/>
      <point x="252.0" y="1470.0"/>
      <point x="481.0" y="1470.0" type="curve" smooth="yes"/>
      <point x="706.0" y="1470.0"/>
      <point x="864.0" y="1326.0"/>
      <point x="864.0" y="1083.0" type="curve" smooth="yes"/>
      <point x="864.0" y="827.0"/>
      <point x="713.0" y="701.0"/>
    </contour>
    <contour>
      <point x="407.0" y="0.0" type="line"/>
      <point x="1345.0" y="1456.0" type="line"/>
      <point x="1572.0" y="1456.0" type="line"/>
      <point x="635.0" y="0.0" type="line"/>
    </contour>
    <contour>
      <point x="1493.0" y="157.0" type="curve" smooth="yes"/>
      <point x="1578.0" y="157.0"/>
      <point x="1637.0" y="194.0"/>
      <point x="1637.0" y="363.0" type="curve" smooth="yes"/>
      <point x="1637.0" y="510.0"/>
      <point x="1589.0" y="576.0"/>
      <point x="1491.0" y="576.0" type="curve" smooth="yes"/>
      <point x="1397.0" y="576.0"/>
      <point x="1349.0" y="522.0"/>
      <point x="1349.0" y="369.0" type="curve" smooth="yes"/>
      <point x="1349.0" y="204.0"/>
      <point x="1408.0" y="157.0"/>
    </contour>
    <contour>
      <point x="1495.0" y="-17.0" type="curve" smooth="yes"/>
      <point x="1269.0" y="-17.0"/>
      <point x="1112.0" y="145.0"/>
      <point x="1112.0" y="367.0" type="curve" smooth="yes"/>
      <point x="1112.0" y="578.0"/>
      <point x="1262.0" y="750.0"/>
      <point x="1491.0" y="750.0" type="curve" smooth="yes"/>
      <point x="1716.0" y="750.0"/>
      <point x="1876.0" y="574.0"/>
      <point x="1876.0" y="365.0" type="curve" smooth="yes"/>
      <point x="1876.0" y="143.0"/>
      <point x="1723.0" y="-17.0"/>
    </contour>
  </outline>
</glyph>
<glyph name="quotesingle" format="1">
  <advance width="471.0"/>
  <unicode hex="0027"/>
  <outline>
    <contour>
      <point x="154.0" y="888.0" type="line"/>
      <point x="115.0" y="1456.0" type="line"/>
      <point x="405.0" y="1456.0" type="line"/>
      <point x="362.0" y="888.0" type="line"/>
    </contour>
  </outline>
</glyph>
<glyph name="asterisk" format="1">
  <advance width="1023.0"/>
  <unicode hex="002A"/>
  <outline>
    <contour>
      <point x="650.0" y="605.0" type="line"/>
      <point x="477.0" y="844.0" type="line"/>
      <point x="302.0" y="601.0" type="line"/>
      <point x="93.0" y="749.0" type="line"/>
      <point x="324.0" y="978.0" type="line"/>
      <point x="41.0" y="1096.0" type="line"/>
      <point x="145.0" y="1296.0" type="line"/>
      <point x="382.0" y="1168.0" type="line"/>
      <point x="352.0" y="1454.0" type="line"/>
      <point x="622.0" y="1454.0" type="line"/>
      <point x="578.0" y="1168.0" type="line"/>
      <point x="831.0" y="1296.0" type="line"/>
      <point x="923.0" y="1096.0" type="line"/>
      <point x="632.0" y="978.0" type="line"/>
      <point x="857.0" y="754.0" type="line"/>
    </contour>
  </outline>
</glyph>
<glyph name="plus" format="1">
  <advance width="1305.0"/>
  <unicode hex="002B"/>
  <outline>
    <contour>
      <point x="518.0" y="62.0" type="line"/>
      <point x="518.0" y="443.0" type="line"/>
      <point x="142.0" y="443.0" type="line"/>
      <point x="142.0" y="678.0" type="line"/>
      <point x="520.0" y="678.0" type="line"/>
      <point x="520.0" y="1068.0" type="line"/>
      <point x="786.0" y="1068.0" type="line"/>
      <point x="786.0" y="678.0" type="line"/>
      <point x="1163.0" y="678.0" type="line"/>
      <point x="1163.0" y="443.0" type="line"/>
      <point x="783.0" y="443.0" type="line"/>
      <point x="783.0" y="62.0" type="line"/>
    </contour>
  </outline>
</glyph>
<glyph name="comma" format="1">
  <advance width="578.0"/>
  <unicode hex="002C"/>
  <outline>
    <contour>
      <point x="42.0" y="-230.0" type="line"/>
      <point x="155.0" y="293.0" type="line"/>
      <point x="472.0" y="293.0" type="line"/>
      <point x="285.0" y="-230.0" type="line"/>
    </contour>
  </outline>
</glyph>
<glyph name="period" format="1">
  <advance width="538.0"/>
  <unicode hex="002E"/>
  <outline>
    <contour>
      <point x="89.0" y="0.0" type="line"/>
      <point x="89.0" y="296.0" type="line"/>
      <point x="410.0" y="296.0" type="line"/>
      <point x="410.0" y="0.0" type="line"/>
    </contour>
  </outline>
</glyph>
<glyph name="slash" format="1">
  <advance width="461.0"/>
  <unicode hex="002F"/>
  <outline>
    <contour>
      <point x="-215.0" y="-241.0" type="line"/>
      <point x="472.0" y="1456.0" type="line"/>
      <point x="714.0" y="1456.0" type="line"/>
      <point x="22.0" y="-241.0" type="line"/>
    </contour>
  </outline>
</glyph>
<glyph name="two" format="1">
  <advance width="1264.0"/>
  <unicode hex="0032"/>
  <outline>
    <contour>
      <point x="601.0" y="1481.0" type="curve" smooth="yes"/>
      <point x="849.0" y="1481.0"/>
      <point x="1045.0" y="1335.0"/>
      <point x="1065.0" y="1061.0" type="curve" smooth="yes"/>
      <point x="1083.0" y="812.0"/>
      <point x="968.0" y="659.0"/>
      <point x="819.0" y="503.0" type="curve" smooth="yes"/>
      <point x="528.0" y="233.0" type="line"/>
      <point x="1037.0" y="233.0" type="line"/>
      <point x="1037.0" y="0.0" type="line"/>
      <point x="194.0" y="0.0" type="line"/>
      <point x="194.0" y="212.0" type="line"/>
      <point x="618.0" y="640.0" type="line" smooth="yes"/>
      <point x="771.0" y="807.0"/>
      <point x="833.0" y="891.5"/>
      <point x="810.0" y="1068.0" type="curve" smooth="yes"/>
      <point x="790.0" y="1220.0"/>
      <point x="688.0" y="1236.0"/>
      <point x="571.0" y="1236.0" type="curve" smooth="yes"/>
      <point x="391.0" y="1236.0"/>
      <point x="206.0" y="1108.0"/>
      <point x="205.0" y="1108.0" type="curve"/>
      <point x="135.0" y="1338.0" type="line"/>
      <point x="135.0" y="1338.0"/>
      <point x="324.0" y="1481.0"/>
    </contour>
  </outline>
</glyph>
<glyph name="four" format="1">
  <advance width="1296.0"/>
  <unicode hex="0034"/>
  <outline>
    <contour>
      <point x="719.0" y="0.0" type="line"/>
      <point x="719.0" y="378.0" type="line"/>
      <point x="109.0" y="378.0" type="line"/>
      <point x="109.0" y="576.0" type="line"/>
      <point x="696.0" y="1456.0" type="line"/>
      <point x="1001.0" y="1456.0" type="line"/>
      <point x="1001.0" y="600.0" type="line"/>
      <point x="1236.0" y="600.0" type="line"/>
      <point x="1236.0" y="378.0" type="line"/>
      <point x="1007.0" y="378.0" type="line"/>
      <point x="1007.0" y="0.0" type="line"/>
    </contour>
    <contour>
      <point x="431.0" y="600.0" type="line"/>
      <point x="724.0" y="600.0" type="line"/>
      <point x="724.0" y="1083.0" type="line"/>
      <point x="686.0" y="1019.0" type="line"/>
    </contour>
  </outline>
</glyph>
<glyph name="five" format="1">
  <advance width="1296.0"/>
  <unicode hex="0035"/>
  <outline>
    <contour>
      <point x="630.0" y="-23.0" type="curve" smooth="yes"/>
      <point x="465.0" y="-23.0"/>
      <point x="289.0" y="54.0"/>
      <point x="158.0" y="193.0" type="curve"/>
      <point x="315.0" y="410.0" type="line"/>
      <point x="409.0" y="289.0"/>
      <point x="524.0" y="224.0"/>
      <point x="623.0" y="224.0" type="curve" smooth="yes"/>
      <point x="725.0" y="224.0"/>
      <point x="872.0" y="291.0"/>
      <point x="872.0" y="483.0" type="curve" smooth="yes"/>
      <point x="872.0" y="602.0"/>
      <point x="811.0" y="721.0"/>
      <point x="719.0" y="721.0" type="curve" smooth="yes"/>
      <point x="662.0" y="721.0"/>
      <point x="618.0" y="718.0"/>
      <point x="586.0" y="676.0" type="curve"/>
      <point x="293.0" y="725.0" type="line"/>
      <point x="293.0" y="1456.0" type="line"/>
      <point x="1113.0" y="1456.0" type="line"/>
      <point x="1113.0" y="1211.0" type="line"/>
      <point x="542.0" y="1211.0" type="line"/>
      <point x="530.0" y="887.0" type="line"/>
      <point x="584.0" y="966.0"/>
      <point x="681.0" y="980.0"/>
      <point x="789.0" y="980.0" type="curve" smooth="yes"/>
      <point x="975.0" y="980.0"/>
      <point x="1169.0" y="765.0"/>
      <point x="1169.0" y="479.0" type="curve" smooth="yes"/>
      <point x="1169.0" y="122.0"/>
      <point x="863.0" y="-23.0"/>
    </contour>
  </outline>
</glyph>
<glyph name="six" format="1">
  <advance width="1296.0"/>
  <unicode hex="0036"/>
  <outline>
    <contour>
      <point x="705.0" y="-23.0" type="curve" smooth="yes"/>
      <point x="342.0" y="-23.0"/>
      <point x="160.0" y="267.0"/>
      <point x="160.0" y="701.0" type="curve" smooth="yes"/>
      <point x="160.0" y="1130.0"/>
      <point x="374.0" y="1483.0"/>
      <point x="760.0" y="1483.0" type="curve" smooth="yes"/>
      <point x="910.0" y="1483.0"/>
      <point x="1039.0" y="1444.0"/>
      <point x="1142.0" y="1346.0" type="curve"/>
      <point x="1050.0" y="1128.0" type="line"/>
      <point x="953.0" y="1205.0"/>
      <point x="862.0" y="1238.0"/>
      <point x="762.0" y="1238.0" type="curve" smooth="yes"/>
      <point x="638.0" y="1238.0"/>
      <point x="506.0" y="1123.0"/>
      <point x="471.0" y="922.0" type="curve" smooth="yes"/>
      <point x="466.0" y="895.0"/>
      <point x="465.0" y="868.0"/>
      <point x="464.0" y="840.0" type="curve"/>
      <point x="555.0" y="963.0"/>
      <point x="663.0" y="974.0"/>
      <point x="720.0" y="974.0" type="curve" smooth="yes"/>
      <point x="1029.0" y="974.0"/>
      <point x="1210.0" y="782.0"/>
      <point x="1210.0" y="480.0" type="curve" smooth="yes"/>
      <point x="1210.0" y="193.0"/>
      <point x="1014.0" y="-23.0"/>
    </contour>
    <contour>
      <point x="692.0" y="224.0" type="curve" smooth="yes"/>
      <point x="822.0" y="224.0"/>
      <point x="915.0" y="337.0"/>
      <point x="915.0" y="479.0" type="curve" smooth="yes"/>
      <point x="915.0" y="623.0"/>
      <point x="845.0" y="738.0"/>
      <point x="717.0" y="738.0" type="curve" smooth="yes"/>
      <point x="560.0" y="738.0"/>
      <point x="477.0" y="615.0"/>
      <point x="477.0" y="451.0" type="curve" smooth="yes"/>
      <point x="477.0" y="306.0"/>
      <point x="620.0" y="224.0"/>
    </contour>
  </outline>
</glyph>
<glyph name="seven" format="1">
  <advance width="1296.0"/>
  <unicode hex="0037"/>
  <outline>
    <contour>
      <point x="298.0" y="0.0" type="line"/>
      <point x="841.0" y="1221.0" type="line"/>
      <point x="137.0" y="1221.0" type="line"/>
      <point x="137.0" y="1456.0" type="line"/>
      <point x="1178.0" y="1456.0" type="line"/>
      <point x="1178.0" y="1234.0" type="line"/>
      <point x="605.0" y="0.0" type="line"/>
    </contour>
  </outline>
</glyph>
<glyph name="nine" format="1">
  <advance width="1294.0"/>
  <unicode hex="0039"/>
  <outline>
    <contour>
      <point x="566.0" y="-25.0" type="curve" smooth="yes"/>
      <point x="462.0" y="-25.0"/>
      <point x="322.0" y="11.0"/>
      <point x="177.0" y="81.0" type="curve"/>
      <point x="287.0" y="319.0" type="line"/>
      <point x="355.0" y="266.0"/>
      <point x="457.0" y="225.0"/>
      <point x="543.0" y="225.0" type="curve" smooth="yes"/>
      <point x="694.0" y="225.0"/>
      <point x="858.0" y="322.0"/>
      <point x="858.0" y="617.0" type="curve" smooth="yes"/>
      <point x="858.0" y="627.0" type="line"/>
      <point x="786.0" y="529.0"/>
      <point x="668.0" y="505.0"/>
      <point x="586.0" y="505.0" type="curve" smooth="yes"/>
      <point x="297.0" y="505.0"/>
      <point x="104.0" y="700.0"/>
      <point x="104.0" y="985.0" type="curve" smooth="yes"/>
      <point x="104.0" y="1267.0"/>
      <point x="308.0" y="1483.0"/>
      <point x="619.0" y="1483.0" type="curve" smooth="yes"/>
      <point x="944.0" y="1483.0"/>
      <point x="1147.0" y="1246.0"/>
      <point x="1147.0" y="769.0" type="curve" smooth="yes"/>
      <point x="1147.0" y="348.0"/>
      <point x="953.0" y="-25.0"/>
    </contour>
    <contour>
      <point x="394.0" y="990.0" type="curve" smooth="yes"/>
      <point x="394.0" y="852.0"/>
      <point x="473.0" y="746.0"/>
      <point x="611.0" y="746.0" type="curve" smooth="yes"/>
      <point x="749.0" y="746.0"/>
      <point x="856.0" y="832.0"/>
      <point x="856.0" y="1026.0" type="curve" smooth="yes"/>
      <point x="856.0" y="1142.0"/>
      <point x="767.0" y="1238.0"/>
      <point x="637.0" y="1238.0" type="curve" smooth="yes"/>
      <point x="494.0" y="1238.0"/>
      <point x="394.0" y="1140.0"/>
    </contour>
  </outline>
</glyph>
<glyph name="colon" format="1">
  <advance width="619.0"/>
  <unicode hex="003A"/>
  <outline>
    <contour>
      <point x="140.0" y="-19.0" type="line"/>
      <point x="140.0" y="279.0" type="line"/>
      <point x="477.0" y="279.0" type="line"/>
      <point x="477.0" y="-19.0" type="line"/>
    </contour>
    <contour>
      <point x="140.0" y="897.0" type="line"/>
      <point x="140.0" y="1193.0" type="line"/>
      <point x="476.0" y="1193.0" type="line"/>
      <point x="477.0" y="897.0" type="line"/>
    </contour>
  </outline>
</glyph>
<glyph name="semicolon" format="1">
  <advance width="538.0"/>
  <unicode hex="003B"/>
  <outline>
    <contour>
      <point x="54.0" y="-230.0" type="line"/>
      <point x="162.0" y="293.0" type="line"/>
      <point x="481.0" y="293.0" type="line"/>
      <point x="297.0" y="-230.0" type="line"/>
    </contour>
    <contour>
      <point x="190.0" y="905.0" type="line"/>
      <point x="190.0" y="1201.0" type="line"/>
      <point x="457.0" y="1201.0" type="line"/>
      <point x="457.0" y="905.0" type="line"/>
    </contour>
  </outline>
</glyph>
<glyph name="less" format="1">
  <advance width="1505.0"/>
  <unicode hex="003C"/>
  <outline>
    <contour>
      <point x="1287.0" y="18.0" type="line"/>
      <point x="172.0" y="496.0" type="line"/>
      <point x="172.0" y="621.0" type="line"/>
      <point x="1291.0" y="1139.0" type="line"/>
      <point x="1291.0" y="880.0" type="line"/>
      <point x="554.0" y="563.0" type="line"/>
      <point x="1287.0" y="271.0" type="line"/>
    </contour>
  </outline>
</glyph>
<glyph name="equal" format="1">
  <advance width="1585.0"/>
  <unicode hex="003D"/>
  <outline>
    <contour>
      <point x="242.0" y="658.0" type="line"/>
      <point x="242.0" y="886.0" type="line"/>
      <point x="1339.0" y="886.0" type="line"/>
      <point x="1339.0" y="658.0" type="line"/>
    </contour>
    <contour>
      <point x="242.0" y="243.0" type="line"/>
      <point x="242.0" y="470.0" type="line"/>
      <point x="1341.0" y="470.0" type="line"/>
      <point x="1341.0" y="243.0" type="line"/>
    </contour>
  </outline>
</glyph>
<glyph name="greater" format="1">
  <advance width="1509.0"/>
  <unicode hex="003E"/>
  <outline>
    <contour>
      <point x="214.0" y="23.0" type="line"/>
      <point x="214.0" y="288.0" type="line"/>
      <point x="946.0" y="581.0" type="line"/>
      <point x="219.0" y="892.0" type="line"/>
      <point x="219.0" y="1150.0" type="line"/>
      <point x="1335.0" y="638.0" type="line"/>
      <point x="1335.0" y="499.0" type="line"/>
    </contour>
  </outline>
</glyph>
<glyph name="at" format="1">
  <advance width="1841.0"/>
  <unicode hex="0040"/>
  <outline>
    <contour>
      <point x="954.0" y="-109.0" type="curve" smooth="yes"/>
      <point x="1154.0" y="-109.0"/>
      <point x="1344.0" y="-57.0"/>
      <point x="1526.0" y="46.0" type="curve"/>
      <point x="1439.0" y="185.0" type="line"/>
      <point x="1274.0" y="112.0"/>
      <point x="1128.0" y="68.0"/>
      <point x="980.0" y="68.0" type="curve" smooth="yes"/>
      <point x="673.0" y="68.0"/>
      <point x="337.0" y="244.0"/>
      <point x="337.0" y="656.0" type="curve" smooth="yes"/>
      <point x="337.0" y="1117.0"/>
      <point x="633.0" y="1300.0"/>
      <point x="998.0" y="1300.0" type="curve" smooth="yes"/>
      <point x="1252.0" y="1300.0"/>
      <point x="1555.0" y="1179.0"/>
      <point x="1555.0" y="795.0" type="curve" smooth="yes"/>
      <point x="1555.0" y="525.0"/>
      <point x="1397.0" y="386.0"/>
      <point x="1349.0" y="386.0" type="curve" smooth="yes"/>
      <point x="1316.0" y="386.0"/>
      <point x="1301.0" y="453.0"/>
      <point x="1301.0" y="478.0" type="curve" smooth="yes"/>
      <point x="1301.0" y="493.0"/>
      <point x="1292.0" y="525.0"/>
      <point x="1318.0" y="666.0" type="curve" smooth="yes"/>
      <point x="1399.0" y="1121.0" type="line"/>
      <point x="1145.0" y="1121.0" type="line"/>
      <point x="1128.0" y="1032.0" type="line"/>
      <point x="1093.0" y="1102.0"/>
      <point x="1038.0" y="1133.0"/>
      <point x="931.0" y="1133.0" type="curve" smooth="yes"/>
      <point x="754.0" y="1133.0"/>
      <point x="471.0" y="960.0"/>
      <point x="481.0" y="624.0" type="curve" smooth="yes"/>
      <point x="489.0" y="368.0"/>
      <point x="680.0" y="250.0"/>
      <point x="839.0" y="250.0" type="curve" smooth="yes"/>
      <point x="1023.0" y="250.0"/>
      <point x="1104.0" y="351.0"/>
      <point x="1133.0" y="469.0" type="curve"/>
      <point x="1133.0" y="375.0"/>
      <point x="1225.0" y="254.0"/>
      <point x="1376.0" y="254.0" type="curve" smooth="yes"/>
      <point x="1589.0" y="254.0"/>
      <point x="1735.0" y="563.0"/>
      <point x="1735.0" y="790.0" type="curve" smooth="yes"/>
      <point x="1735.0" y="1201.0"/>
      <point x="1409.0" y="1484.0"/>
      <point x="984.0" y="1484.0" type="curve" smooth="yes"/>
      <point x="494.0" y="1484.0"/>
      <point x="104.0" y="1177.0"/>
      <point x="104.0" y="656.0" type="curve" smooth="yes"/>
      <point x="104.0" y="188.0"/>
      <point x="467.0" y="-109.0"/>
    </contour>
    <contour>
      <point x="882.0" y="470.0" type="curve" smooth="yes"/>
      <point x="819.0" y="470.0"/>
      <point x="771.0" y="517.0"/>
      <point x="771.0" y="593.0" type="curve" smooth="yes"/>
      <point x="771.0" y="744.0"/>
      <point x="830.0" y="917.0"/>
      <point x="970.0" y="917.0" type="curve" smooth="yes"/>
      <point x="1027.0" y="917.0"/>
      <point x="1075.0" y="891.0"/>
      <point x="1075.0" y="813.0" type="curve" smooth="yes"/>
      <point x="1075.0" y="637.0"/>
      <point x="1009.0" y="470.0"/>
    </contour>
  </outline>
</glyph>
<glyph name="A" format="1">
  <advance width="1492.0"/>
  <unicode hex="0041"/>
  <outline>
    <contour>
      <point x="3.0" y="0.0" type="line"/>
      <point x="324.0" y="0.0" type="line"/>
      <point x="459.0" y="348.0" type="line"/>
      <point x="1017.0" y="348.0" type="line"/>
      <point x="1157.0" y="0.0" type="line"/>
      <point x="1487.0" y="0.0" type="line"/>
      <point x="886.0" y="1456.0" type="line"/>
      <point x="597.0" y="1456.0" type="line"/>
    </contour>
    <contour>
      <point x="567.0" y="616.0" type="line"/>
      <point x="599.5" y="714.5" type="line"/>
      <point x="736.0" y="1101.0" type="line"/>
      <point x="868.5" y="714.5" type="line"/>
      <point x="899.0" y="616.0" type="line"/>
    </contour>
  </outline>
</glyph>
<glyph name="D" format="1">
  <advance width="1601.0"/>
  <unicode hex="0044"/>
  <outline>
    <contour>
      <point x="482.0" y="245.0" type="line"/>
      <point x="669.0" y="245.0" type="line" smooth="yes"/>
      <point x="987.0" y="245.0"/>
      <point x="1191.0" y="397.0"/>
      <point x="1191.0" y="746.0" type="curve" smooth="yes"/>
      <point x="1191.0" y="1013.0"/>
      <point x="1032.0" y="1211.0"/>
      <point x="666.0" y="1211.0" type="curve" smooth="yes"/>
      <point x="482.0" y="1211.0" type="line"/>
    </contour>
    <contour>
      <point x="194.0" y="0.0" type="line"/>
      <point x="194.0" y="1456.0" type="line"/>
      <point x="643.0" y="1456.0" type="line" smooth="yes"/>
      <point x="1266.0" y="1456.0"/>
      <point x="1495.0" y="1149.0"/>
      <point x="1495.0" y="743.0" type="curve" smooth="yes"/>
      <point x="1495.0" y="245.0"/>
      <point x="1205.0" y="0.0"/>
      <point x="656.0" y="0.0" type="curve" smooth="yes"/>
    </contour>
  </outline>
</glyph>
<glyph name="E" format="1">
  <advance width="1297.0"/>
  <unicode hex="0045"/>
  <outline>
    <contour>
      <point x="194.0" y="0.0" type="line"/>
      <point x="194.0" y="1456.0" type="line"/>
      <point x="1140.0" y="1456.0" type="line"/>
      <point x="1140.0" y="1211.0" type="line"/>
      <point x="482.0" y="1211.0" type="line"/>
      <point x="482.0" y="869.0" type="line"/>
      <point x="1103.0" y="869.0" type="line"/>
      <point x="1103.0" y="621.0" type="line"/>
      <point x="486.0" y="621.0" type="line"/>
      <point x="486.0" y="245.0" type="line"/>
      <point x="1167.0" y="245.0" type="line"/>
      <point x="1167.0" y="0.0" type="line"/>
    </contour>
  </outline>
</glyph>
<glyph name="F" format="1">
  <advance width="1171.0"/>
  <unicode hex="0046"/>
  <outline>
    <contour>
      <point x="194.0" y="0.0" type="line"/>
      <point x="194.0" y="1456.0" type="line"/>
      <point x="1109.0" y="1456.0" type="line"/>
      <point x="1109.0" y="1211.0" type="line"/>
      <point x="482.0" y="1211.0" type="line"/>
      <point x="482.0" y="864.0" type="line"/>
      <point x="1077.0" y="864.0" type="line"/>
      <point x="1077.0" y="616.0" type="line"/>
      <point x="482.0" y="616.0" type="line"/>
      <point x="482.0" y="0.0" type="line"/>
    </contour>
  </outline>
</glyph>
<glyph name="G" format="1">
  <advance width="1544.0"/>
  <unicode hex="0047"/>
  <outline>
    <contour>
      <point x="856.0" y="-23.0" type="curve" smooth="yes"/>
      <point x="362.0" y="-23.0"/>
      <point x="104.0" y="267.0"/>
      <point x="104.0" y="706.0" type="curve" smooth="yes"/>
      <point x="104.0" y="1095.0"/>
      <point x="342.0" y="1483.0"/>
      <point x="888.0" y="1483.0" type="curve" smooth="yes"/>
      <point x="1237.0" y="1483.0"/>
      <point x="1350.0" y="1361.0"/>
      <point x="1376.0" y="1340.0" type="curve"/>
      <point x="1261.0" y="1136.0" type="line"/>
      <point x="1228.0" y="1162.0"/>
      <point x="1121.0" y="1235.0"/>
      <point x="886.0" y="1235.0" type="curve" smooth="yes"/>
      <point x="518.0" y="1235.0"/>
      <point x="406.0" y="936.0"/>
      <point x="406.0" y="715.0" type="curve" smooth="yes"/>
      <point x="406.0" y="430.0"/>
      <point x="566.0" y="224.0"/>
      <point x="871.0" y="224.0" type="curve" smooth="yes"/>
      <point x="939.0" y="224.0"/>
      <point x="1008.0" y="234.0"/>
      <point x="1083.0" y="252.0" type="curve"/>
      <point x="1083.0" y="561.0" type="line"/>
      <point x="756.0" y="561.0" type="line"/>
      <point x="756.0" y="808.0" type="line"/>
      <point x="1376.0" y="808.0" type="line"/>
      <point x="1376.0" y="89.0" type="line"/>
      <point x="1184.0" y="4.0"/>
      <point x="1022.0" y="-23.0"/>
    </contour>
  </outline>
</glyph>
<glyph name="H" format="1">
  <advance width="1560.0"/>
  <unicode hex="0048"/>
  <outline>
    <contour>
      <point x="176.0" y="0.0" type="line"/>
      <point x="176.0" y="1456.0" type="line"/>
      <point x="464.0" y="1456.0" type="line"/>
      <point x="464.0" y="873.0" type="line"/>
      <point x="1098.0" y="873.0" type="line"/>
      <point x="1098.0" y="1456.0" type="line"/>
      <point x="1386.0" y="1456.0" type="line"/>
      <point x="1386.0" y="0.0" type="line"/>
      <point x="1104.0" y="0.0" type="line"/>
      <point x="1104.0" y="623.0" type="line"/>
      <point x="470.0" y="623.0" type="line"/>
      <point x="470.0" y="0.0" type="line"/>
    </contour>
  </outline>
</glyph>
<glyph name="J" format="1">
  <advance width="1195.0"/>
  <unicode hex="004A"/>
  <outline>
    <contour>
      <point x="549.0" y="-331.0" type="curve" smooth="yes"/>
      <point x="476.0" y="-331.0"/>
      <point x="368.0" y="-323.0"/>
      <point x="186.0" y="-258.0" type="curve"/>
      <point x="242.0" y="-43.0" type="line"/>
      <point x="390.0" y="-90.0"/>
      <point x="461.0" y="-91.0"/>
      <point x="491.0" y="-91.0" type="curve" smooth="yes"/>
      <point x="651.0" y="-91.0"/>
      <point x="715.0" y="-3.0"/>
      <point x="715.0" y="104.0" type="curve" smooth="yes"/>
      <point x="715.0" y="1456.0" type="line"/>
      <point x="1003.0" y="1456.0" type="line"/>
      <point x="1003.0" y="125.0" type="line" smooth="yes"/>
      <point x="1003.0" y="-168.0"/>
      <point x="826.0" y="-331.0"/>
    </contour>
  </outline>
</glyph>
<glyph name="M" format="1">
  <advance width="2044.0"/>
  <unicode hex="004D"/>
  <outline>
    <contour>
      <point x="194.0" y="0.0" type="line"/>
      <point x="194.0" y="1456.0" type="line"/>
      <point x="528.0" y="1456.0" type="line"/>
      <point x="908.0" y="624.0" type="line"/>
      <point x="1026.0" y="369.0" type="line"/>
      <point x="1150.0" y="632.0" type="line"/>
      <point x="1515.0" y="1456.0" type="line"/>
      <point x="1850.0" y="1456.0" type="line"/>
      <point x="1850.0" y="0.0" type="line"/>
      <point x="1581.0" y="0.0" type="line"/>
      <point x="1581.0" y="980.0" type="line"/>
      <point x="1461.0" y="731.0" type="line"/>
      <point x="1132.0" y="0.0" type="line"/>
      <point x="920.0" y="0.0" type="line"/>
      <point x="580.0" y="739.0" type="line"/>
      <point x="471.0" y="950.0" type="line"/>
      <point x="471.0" y="0.0" type="line"/>
    </contour>
  </outline>
</glyph>
<glyph name="O" format="1">
  <advance width="1694.0"/>
  <unicode hex="004F"/>
  <outline>
    <contour>
      <point x="844.0" y="224.0" type="curve" smooth="yes"/>
      <point x="1119.0" y="224.0"/>
      <point x="1277.0" y="400.0"/>
      <point x="1277.0" y="738.0" type="curve" smooth="yes"/>
      <point x="1277.0" y="1071.0"/>
      <point x="1119.0" y="1236.0"/>
      <point x="850.0" y="1236.0" type="curve" smooth="yes"/>
      <point x="573.0" y="1236.0"/>
      <point x="417.0" y="1072.0"/>
      <point x="417.0" y="738.0" type="curve" smooth="yes"/>
      <point x="417.0" y="399.0"/>
      <point x="561.0" y="224.0"/>
    </contour>
    <contour>
      <point x="853.0" y="-23.0" type="curve" smooth="yes"/>
      <point x="390.0" y="-23.0"/>
      <point x="104.0" y="276.0"/>
      <point x="104.0" y="738.0" type="curve" smooth="yes"/>
      <point x="104.0" y="1189.0"/>
      <point x="391.0" y="1483.0"/>
      <point x="858.0" y="1483.0" type="curve" smooth="yes"/>
      <point x="1306.0" y="1483.0"/>
      <point x="1588.0" y="1193.0"/>
      <point x="1588.0" y="738.0" type="curve" smooth="yes"/>
      <point x="1588.0" y="277.0"/>
      <point x="1317.0" y="-23.0"/>
    </contour>
  </outline>
</glyph>
<glyph name="P" format="1">
  <advance width="1331.0"/>
  <unicode hex="0050"/>
  <outline>
    <contour>
      <point x="194.0" y="0.0" type="line"/>
      <point x="194.0" y="1456.0" type="line"/>
      <point x="607.0" y="1456.0" type="line" smooth="yes"/>
      <point x="953.0" y="1456.0"/>
      <point x="1263.0" y="1441.0"/>
      <point x="1263.0" y="1030.0" type="curve" smooth="yes"/>
      <point x="1263.0" y="708.0"/>
      <point x="1055.0" y="610.0"/>
      <point x="679.0" y="610.0" type="curve" smooth="yes"/>
      <point x="482.0" y="610.0" type="line"/>
      <point x="482.0" y="0.0" type="line"/>
    </contour>
    <contour>
      <point x="482.0" y="857.0" type="line"/>
      <point x="673.0" y="857.0" type="line" smooth="yes"/>
      <point x="837.0" y="857.0"/>
      <point x="956.0" y="883.0"/>
      <point x="956.0" y="1028.0" type="curve" smooth="yes"/>
      <point x="956.0" y="1220.0"/>
      <point x="812.0" y="1207.0"/>
      <point x="620.0" y="1207.0" type="curve" smooth="yes"/>
      <point x="482.0" y="1207.0" type="line"/>
    </contour>
  </outline>
</glyph>
<glyph name="Q" format="1">
  <advance width="1698.0"/>
  <unicode hex="0051"/>
  <outline>
    <contour>
      <point x="1284.0" y="-457.0" type="line"/>
      <point x="1284.0" y="-457.0"/>
      <point x="1074.0" y="-278.0"/>
      <point x="933.0" y="-8.0" type="curve"/>
      <point x="1178.0" y="45.0" type="line"/>
      <point x="1253.0" y="-116.0"/>
      <point x="1433.0" y="-294.0"/>
      <point x="1433.0" y="-294.0" type="curve"/>
    </contour>
    <component base="O"/>
  </outline>
</glyph>
<glyph name="R" format="1">
  <advance width="1420.0"/>
  <unicode hex="0052"/>
  <outline>
    <contour>
      <point x="194.0" y="0.0" type="line"/>
      <point x="194.0" y="1456.0" type="line"/>
      <point x="760.0" y="1456.0" type="line" smooth="yes"/>
      <point x="1088.0" y="1456.0"/>
      <point x="1274.0" y="1365.0"/>
      <point x="1274.0" y="1048.0" type="curve" smooth="yes"/>
      <point x="1274.0" y="909.0"/>
      <point x="1183.0" y="757.0"/>
      <point x="969.0" y="710.0" type="curve"/>
      <point x="1014.0" y="667.0"/>
      <point x="1094.0" y="640.0"/>
      <point x="1143.0" y="522.0" type="curve" smooth="yes"/>
      <point x="1356.0" y="0.0" type="line"/>
      <point x="1042.0" y="0.0" type="line"/>
      <point x="874.0" y="441.0" type="line" smooth="yes"/>
      <point x="826.0" y="566.0"/>
      <point x="771.0" y="603.0"/>
      <point x="659.0" y="603.0" type="curve" smooth="yes"/>
      <point x="482.0" y="603.0" type="line"/>
      <point x="482.0" y="0.0" type="line"/>
    </contour>
    <contour>
      <point x="477.0" y="848.0" type="line"/>
      <point x="716.0" y="848.0" type="line" smooth="yes"/>
      <point x="851.0" y="848.0"/>
      <point x="968.0" y="888.0"/>
      <point x="968.0" y="1037.0" type="curve" smooth="yes"/>
      <point x="968.0" y="1179.0"/>
      <point x="898.0" y="1211.0"/>
      <point x="751.0" y="1211.0" type="curve" smooth="yes"/>
      <point x="477.0" y="1211.0" type="line"/>
    </contour>
  </outline>
</glyph>
<glyph name="S" format="1">
  <advance width="1290.0"/>
  <unicode hex="0053"/>
  <outline>
    <contour>
      <point x="636.0" y="-23.0" type="curve" smooth="yes"/>
      <point x="476.0" y="-23.0"/>
      <point x="258.0" y="2.0"/>
      <point x="110.0" y="145.0" type="curve"/>
      <point x="232.0" y="351.0" type="line"/>
      <point x="354.0" y="253.0"/>
      <point x="542.0" y="224.0"/>
      <point x="614.0" y="224.0" type="curve" smooth="yes"/>
      <point x="785.0" y="224.0"/>
      <point x="857.0" y="282.0"/>
      <point x="857.0" y="409.0" type="curve" smooth="yes"/>
      <point x="857.0" y="495.0"/>
      <point x="850.0" y="533.0"/>
      <point x="589.0" y="620.0" type="curve" smooth="yes"/>
      <point x="260.0" y="727.0"/>
      <point x="118.0" y="824.0"/>
      <point x="118.0" y="1081.0" type="curve" smooth="yes"/>
      <point x="118.0" y="1347.0"/>
      <point x="329.0" y="1483.0"/>
      <point x="621.0" y="1483.0" type="curve" smooth="yes"/>
      <point x="888.0" y="1483.0"/>
      <point x="1001.0" y="1463.0"/>
      <point x="1166.0" y="1306.0" type="curve"/>
      <point x="1016.0" y="1117.0" type="line"/>
      <point x="876.0" y="1253.0"/>
      <point x="729.0" y="1235.0"/>
      <point x="665.0" y="1235.0" type="curve" smooth="yes"/>
      <point x="533.0" y="1235.0"/>
      <point x="426.0" y="1195.0"/>
      <point x="426.0" y="1095.0" type="curve" smooth="yes"/>
      <point x="426.0" y="1003.0"/>
      <point x="434.0" y="960.0"/>
      <point x="704.0" y="873.0" type="curve" smooth="yes"/>
      <point x="1048.0" y="762.0"/>
      <point x="1166.0" y="672.0"/>
      <point x="1166.0" y="401.0" type="curve" smooth="yes"/>
      <point x="1166.0" y="80.0"/>
      <point x="899.0" y="-23.0"/>
    </contour>
  </outline>
</glyph>
<glyph name="U" format="1">
  <advance width="1516.0"/>
  <unicode hex="0055"/>
  <outline>
    <contour>
      <point x="763.0" y="-23.0" type="curve" smooth="yes"/>
      <point x="254.0" y="-23.0"/>
      <point x="159.0" y="293.0"/>
      <point x="159.0" y="621.0" type="curve" smooth="yes"/>
      <point x="159.0" y="1456.0" type="line"/>
      <point x="447.0" y="1456.0" type="line"/>
      <point x="447.0" y="604.0" type="line" smooth="yes"/>
      <point x="447.0" y="282.0"/>
      <point x="616.0" y="224.0"/>
      <point x="759.0" y="224.0" type="curve" smooth="yes"/>
      <point x="918.0" y="224.0"/>
      <point x="1067.0" y="284.0"/>
      <point x="1067.0" y="610.0" type="curve" smooth="yes"/>
      <point x="1067.0" y="1456.0" type="line"/>
      <point x="1357.0" y="1456.0" type="line"/>
      <point x="1357.0" y="617.0" type="line" smooth="yes"/>
      <point x="1359.0" y="307.0"/>
      <point x="1294.0" y="-23.0"/>
    </contour>
  </outline>
</glyph>
<glyph name="V" format="1">
  <advance width="1438.0"/>
  <unicode hex="0056"/>
  <outline>
    <contour>
      <point x="579.0" y="0.0" type="line"/>
      <point x="18.0" y="1456.0" type="line"/>
      <point x="344.0" y="1456.0" type="line"/>
      <point x="751" y="280" type="line"/>
      <point x="751" y="280"/>
      <point x="683" y="280"/>
      <point x="683" y="280" type="curve"/>
      <point x="1113.0" y="1456.0" type="line"/>
      <point x="1418.0" y="1456.0" type="line"/>
      <point x="859.0" y="0.0" type="line"/>
    </contour>
  </outline>
</glyph>
<glyph name="W" format="1">
  <advance width="2162.0"/>
  <unicode hex="0057"/>
  <outline>
    <contour>
      <point x="432.0" y="0.0" type="line"/>
      <point x="8.0" y="1456.0" type="line"/>
      <point x="312.0" y="1456.0" type="line"/>
      <point x="639" y="241" type="line"/>
      <point x="639" y="241"/>
      <point x="569" y="241"/>
      <point x="569" y="241" type="curve"/>
      <point x="951.0" y="1456.0" type="line"/>
      <point x="1220.0" y="1456.0" type="line"/>
      <point x="1613" y="241" type="line"/>
      <point x="1613" y="241"/>
      <point x="1545" y="240"/>
      <point x="1545" y="240" type="curve"/>
      <point x="1854.0" y="1456.0" type="line"/>
      <point x="2154.0" y="1456.0" type="line"/>
      <point x="1738.0" y="0.0" type="line"/>
      <point x="1409.0" y="0.0" type="line"/>
      <point x="1077.0" y="1051.0" type="line"/>
      <point x="757.0" y="0.0" type="line"/>
    </contour>
  </outline>
</glyph>
<glyph name="bracketleft" format="1">
  <advance width="598.0"/>
  <unicode hex="005B"/>
  <outline>
    <contour>
      <point x="122.0" y="-117.0" type="line"/>
      <point x="122.0" y="1522.0" type="line"/>
      <point x="549.0" y="1522.0" type="line"/>
      <point x="549.0" y="1304.0" type="line"/>
      <point x="410.0" y="1304.0" type="line"/>
      <point x="410.0" y="103.0" type="line"/>
      <point x="550.0" y="103.0" type="line"/>
      <point x="550.0" y="-117.0" type="line"/>
    </contour>
  </outline>
</glyph>
<glyph name="backslash" format="1">
  <advance width="678.0"/>
  <unicode hex="005C"/>
  <outline>
    <contour>
      <point x="551.0" y="-132.0" type="line"/>
      <point x="-203.0" y="1456.0" type="line"/>
      <point x="100.0" y="1456.0" type="line"/>
      <point x="848.0" y="-132.0" type="line"/>
    </contour>
  </outline>
</glyph>
<glyph name="asciicircum" format="1">
  <advance width="1520.0"/>
  <unicode hex="005E"/>
  <outline>
    <contour>
      <point x="134.0" y="514.0" type="line"/>
      <point x="665.0" y="1456.0" type="line"/>
      <point x="851.0" y="1456.0" type="line"/>
      <point x="1386.0" y="514.0" type="line"/>
      <point x="1095.0" y="514.0" type="line"/>
      <point x="754.0" y="1127.0" type="line"/>
      <point x="431.0" y="514.0" type="line"/>
    </contour>
  </outline>
</glyph>
<glyph name="b" format="1">
  <advance width="1303.0"/>
  <unicode hex="0062"/>
  <outline>
    <contour>
      <point x="700.0" y="-23.0" type="curve" smooth="yes"/>
      <point x="555.0" y="-23.0"/>
      <point x="453.0" y="50.0"/>
      <point x="415.0" y="132.0" type="curve"/>
      <point x="417.0" y="0.0" type="line"/>
      <point x="126.0" y="0.0" type="line"/>
      <point x="134.0" y="274.0" type="line"/>
      <point x="134.0" y="1443.0" type="line"/>
      <point x="417.0" y="1443.0" type="line"/>
      <point x="417" y="879" type="line"/>
      <point x="425" y="899"/>
      <point x="508" y="1052"/>
      <point x="747" y="1052" type="curve" smooth="yes"/>
      <point x="1028" y="1052"/>
      <point x="1189.0" y="813.0"/>
      <point x="1189.0" y="511.0" type="curve" smooth="yes"/>
      <point x="1189.0" y="201.0"/>
      <point x="954.0" y="-23.0"/>
    </contour>
    <contour>
      <point x="643.0" y="204.0" type="curve" smooth="yes"/>
      <point x="831.0" y="204.0"/>
      <point x="892.0" y="372.0"/>
      <point x="892.0" y="499.0" type="curve" smooth="yes"/>
      <point x="892.0" y="669.0"/>
      <point x="826.0" y="823.0"/>
      <point x="658.0" y="823.0" type="curve" smooth="yes"/>
      <point x="488.0" y="823.0"/>
      <point x="396.0" y="701.0"/>
      <point x="396.0" y="515.0" type="curve" smooth="yes"/>
      <point x="396.0" y="343.0"/>
      <point x="467.0" y="204.0"/>
    </contour>
  </outline>
</glyph>
<glyph name="c" format="1">
  <advance width="1112.0"/>
  <unicode hex="0063"/>
  <outline>
    <contour>
      <point x="659.0" y="-23.0" type="curve" smooth="yes"/>
      <point x="296.0" y="-23.0"/>
      <point x="114.0" y="255.0"/>
      <point x="114.0" y="518.0" type="curve" smooth="yes"/>
      <point x="114.0" y="806.0"/>
      <point x="304.0" y="1052.0"/>
      <point x="652.0" y="1052.0" type="curve" smooth="yes"/>
      <point x="828.0" y="1052.0"/>
      <point x="957.0" y="1004.0"/>
      <point x="1046.0" y="905.0" type="curve"/>
      <point x="946.0" y="724.0" type="line"/>
      <point x="889.0" y="774.0"/>
      <point x="812.0" y="825.0"/>
      <point x="687.0" y="825.0" type="curve" smooth="yes"/>
      <point x="476.0" y="825.0"/>
      <point x="409.0" y="674.0"/>
      <point x="409.0" y="516.0" type="curve" smooth="yes"/>
      <point x="409.0" y="337.0"/>
      <point x="515.0" y="204.0"/>
      <point x="702.0" y="204.0" type="curve" smooth="yes"/>
      <point x="853.0" y="204.0"/>
      <point x="924.0" y="288.0"/>
      <point x="947.0" y="304.0" type="curve"/>
      <point x="1033.0" y="93.0" type="line"/>
      <point x="908.0" y="10.0"/>
      <point x="801.0" y="-23.0"/>
    </contour>
  </outline>
</glyph>
<glyph name="d" format="1">
  <advance width="1269.0"/>
  <unicode hex="0064"/>
  <outline>
    <contour>
      <point x="575.0" y="-23.0" type="curve" smooth="yes"/>
      <point x="325.0" y="-23.0"/>
      <point x="112.0" y="184.0"/>
      <point x="112.0" y="510.0" type="curve" smooth="yes"/>
      <point x="112.0" y="776.0"/>
      <point x="261.0" y="1052.0"/>
      <point x="602.0" y="1052.0" type="curve" smooth="yes"/>
      <point x="757.0" y="1052.0"/>
      <point x="838.0" y="964.0"/>
      <point x="858.0" y="942.0" type="curve"/>
      <point x="858.0" y="1443.0" type="line"/>
      <point x="1141.0" y="1443.0" type="line"/>
      <point x="1141.0" y="282.0" type="line" smooth="yes"/>
      <point x="1141.0" y="287.0"/>
      <point x="1140.0" y="307.0"/>
      <point x="1149.0" y="0.0" type="curve"/>
      <point x="858.0" y="0.0" type="line"/>
      <point x="858.0" y="109.0" type="line"/>
      <point x="847.0" y="80.0"/>
      <point x="767.0" y="-23.0"/>
    </contour>
    <contour>
      <point x="643.0" y="204.0" type="curve" smooth="yes"/>
      <point x="825.0" y="204.0"/>
      <point x="869.0" y="372.0"/>
      <point x="869.0" y="505.0" type="curve" smooth="yes"/>
      <point x="869.0" y="673.0"/>
      <point x="813.0" y="823.0"/>
      <point x="637.0" y="823.0" type="curve" smooth="yes"/>
      <point x="463.0" y="823.0"/>
      <point x="409.0" y="673.0"/>
      <point x="409.0" y="521.0" type="curve" smooth="yes"/>
      <point x="409.0" y="372.0"/>
      <point x="457.0" y="204.0"/>
    </contour>
  </outline>
</glyph>
<glyph name="e" format="1">
  <advance width="1229.0"/>
  <unicode hex="0065"/>
  <outline>
    <contour>
      <point x="678.0" y="-23.0" type="curve" smooth="yes"/>
      <point x="318.0" y="-23.0"/>
      <point x="114.0" y="207.0"/>
      <point x="114.0" y="514.0" type="curve" smooth="yes"/>
      <point x="114.0" y="781.0"/>
      <point x="300.0" y="1052.0"/>
      <point x="647.0" y="1052.0" type="curve" smooth="yes"/>
      <point x="1005.0" y="1052.0"/>
      <point x="1106.0" y="794.0"/>
      <point x="1106.0" y="503.0" type="curve" smooth="yes"/>
      <point x="1106.0" y="484.0"/>
      <point x="1105.0" y="464.0"/>
      <point x="1099.0" y="462.0" type="curve"/>
      <point x="414.0" y="462.0" type="line"/>
      <point x="426.0" y="269.0"/>
      <point x="547.0" y="204.0"/>
      <point x="710.0" y="204.0" type="curve" smooth="yes"/>
      <point x="813.0" y="204.0"/>
      <point x="916.0" y="240.0"/>
      <point x="1029.0" y="313.0" type="curve"/>
      <point x="1102.0" y="107.0" type="line"/>
      <point x="964.0" y="17.0"/>
      <point x="843.0" y="-23.0"/>
    </contour>
    <contour>
      <point x="416.0" y="648.0" type="curve"/>
      <point x="860.0" y="648.0" type="line"/>
      <point x="837.0" y="772.0"/>
      <point x="767.0" y="837.0"/>
      <point x="667.0" y="837.0" type="curve" smooth="yes"/>
      <point x="535.0" y="837.0"/>
      <point x="451.0" y="758.0"/>
    </contour>
  </outline>
</glyph>
<glyph name="f" format="1">
  <advance width="872.0"/>
  <unicode hex="0066"/>
  <outline>
    <contour>
      <point x="265.0" y="0.0" type="line"/>
      <point x="265.0" y="834.0" type="line"/>
      <point x="72.0" y="834.0" type="line"/>
      <point x="72.0" y="1026.0" type="line"/>
      <point x="265.0" y="1026.0" type="line"/>
      <point x="265.0" y="1037.0" type="line" smooth="yes"/>
      <point x="265.0" y="1347.0"/>
      <point x="294.0" y="1478.0"/>
      <point x="720.0" y="1478.0" type="curve" smooth="yes"/>
      <point x="776.0" y="1478.0" type="line"/>
      <point x="762.0" y="1259.0" type="line"/>
      <point x="567.0" y="1259.0"/>
      <point x="548.0" y="1250.0"/>
      <point x="548.0" y="1033.0" type="curve" smooth="yes"/>
      <point x="548.0" y="1026.0" type="line"/>
      <point x="772.0" y="1026.0" type="line"/>
      <point x="772.0" y="834.0" type="line"/>
      <point x="548.0" y="834.0" type="line"/>
      <point x="548.0" y="0.0" type="line"/>
    </contour>
  </outline>
</glyph>
<glyph name="g" format="1">
  <advance width="1238.0"/>
  <unicode hex="0067"/>
  <outline>
    <contour>
      <point x="645.0" y="219.0" type="curve" smooth="yes"/>
      <point x="839.0" y="219.0"/>
      <point x="861.0" y="390.0"/>
      <point x="861.0" y="504.0" type="curve" smooth="yes"/>
      <point x="861.0" y="678.0"/>
      <point x="806.0" y="823.0"/>
      <point x="641.0" y="823.0" type="curve" smooth="yes"/>
      <point x="470.0" y="823.0"/>
      <point x="409.0" y="662.0"/>
      <point x="409.0" y="516.0" type="curve" smooth="yes"/>
      <point x="409.0" y="334.0"/>
      <point x="468.0" y="219.0"/>
    </contour>
    <contour>
      <point x="888.0" y="173.0" type="line"/>
      <point x="881.0" y="180.0"/>
      <point x="836.0" y="10.0"/>
      <point x="619.0" y="10.0" type="curve" smooth="yes"/>
      <point x="314.0" y="10.0"/>
      <point x="112.0" y="201.0"/>
      <point x="112.0" y="517.0" type="curve" smooth="yes"/>
      <point x="112.0" y="775.0"/>
      <point x="243.0" y="1052.0"/>
      <point x="594.0" y="1052.0" type="curve" smooth="yes"/>
      <point x="748.0" y="1052.0"/>
      <point x="871.0" y="956.0"/>
      <point x="877.0" y="853.0" type="curve"/>
      <point x="845.0" y="817.0" type="line"/>
      <point x="841.0" y="1026.0" type="line"/>
      <point x="1146.0" y="1026.0" type="line"/>
      <point x="1146.0" y="1026.0"/>
      <point x="1120.0" y="882.0"/>
      <point x="1120.0" y="643.0" type="curve" smooth="yes"/>
      <point x="1120.0" y="155.0" type="line" smooth="yes"/>
      <point x="1120.0" y="-38.0"/>
      <point x="1107.0" y="-414.0"/>
      <point x="577.0" y="-414.0" type="curve" smooth="yes"/>
      <point x="447.0" y="-414.0"/>
      <point x="315.0" y="-385.0"/>
      <point x="188.0" y="-319.0" type="curve"/>
      <point x="238.0" y="-75.0" type="line"/>
      <point x="366.0" y="-166.0"/>
      <point x="490.0" y="-184.0"/>
      <point x="554.0" y="-184.0" type="curve" smooth="yes"/>
      <point x="721.0" y="-184.0"/>
      <point x="844.0" y="-123.0"/>
      <point x="844.0" y="7.0" type="curve" smooth="yes"/>
      <point x="844.0" y="204.0" type="line"/>
    </contour>
  </outline>
</glyph>
<glyph name="k" format="1">
  <advance width="1105.0"/>
  <unicode hex="006B"/>
  <outline>
    <contour>
      <point x="128.0" y="0.0" type="line"/>
      <point x="128.0" y="1443.0" type="line"/>
      <point x="412.0" y="1443.0" type="line"/>
      <point x="412.0" y="616.0" type="line"/>
      <point x="743.0" y="1026.0" type="line"/>
      <point x="1134.0" y="1026.0" type="line"/>
      <point x="663.0" y="526.0" type="line"/>
      <point x="1163.0" y="0.0" type="line"/>
      <point x="788.0" y="0.0" type="line"/>
      <point x="412.0" y="420.0" type="line"/>
      <point x="412.0" y="0.0" type="line"/>
    </contour>
  </outline>
</glyph>
<glyph name="o" format="1">
  <advance width="1306.0"/>
  <unicode hex="006F"/>
  <outline>
    <contour>
      <point x="898.0" y="517.0" type="curve" smooth="yes"/>
      <point x="898.0" y="671.0"/>
      <point x="833.0" y="823.0"/>
      <point x="653.0" y="823.0" type="curve" smooth="yes"/>
      <point x="475.0" y="823.0"/>
      <point x="406.0" y="673.0"/>
      <point x="406.0" y="519.0" type="curve" smooth="yes"/>
      <point x="406.0" y="370.0"/>
      <point x="465.0" y="204.0"/>
      <point x="651.0" y="204.0" type="curve" smooth="yes"/>
      <point x="843.0" y="204.0"/>
      <point x="898.0" y="370.0"/>
    </contour>
    <contour>
      <point x="114.0" y="515.0" type="curve" smooth="yes"/>
      <point x="114.0" y="791.0"/>
      <point x="289" y="1052"/>
      <point x="656.0" y="1052.0" type="curve" smooth="yes"/>
      <point x="1040" y="1052"/>
      <point x="1192.0" y="793.0"/>
      <point x="1192.0" y="509.0" type="curve" smooth="yes"/>
      <point x="1192.0" y="251.0"/>
      <point x="1028" y="-23"/>
      <point x="658.0" y="-23.0" type="curve" smooth="yes"/>
      <point x="279" y="-23"/>
      <point x="114.0" y="248.0"/>
    </contour>
  </outline>
</glyph>
<glyph name="p" format="1">
  <advance width="1280.0"/>
  <unicode hex="0070"/>
  <outline>
    <contour>
      <point x="149.0" y="-382.0" type="line"/>
      <point x="149.0" y="648.0" type="line" smooth="yes"/>
      <point x="149.0" y="779.0"/>
      <point x="135.0" y="913.0"/>
      <point x="126.0" y="1026.0" type="curve"/>
      <point x="428.0" y="1026.0" type="line"/>
      <point x="428.0" y="897.0" type="line"/>
      <point x="424.0" y="930.0"/>
      <point x="521.0" y="1052.0"/>
      <point x="734.0" y="1052.0" type="curve" smooth="yes"/>
      <point x="1010.0" y="1052.0"/>
      <point x="1172.0" y="781.0"/>
      <point x="1172.0" y="523.0" type="curve" smooth="yes"/>
      <point x="1172.0" y="272.0"/>
      <point x="1015.0" y="-23.0"/>
      <point x="713.0" y="-23.0" type="curve" smooth="yes"/>
      <point x="520.0" y="-23.0"/>
      <point x="424.0" y="101.0"/>
      <point x="428.0" y="129.0" type="curve"/>
      <point x="428.0" y="-382.0" type="line"/>
    </contour>
    <contour>
      <point x="641.0" y="204.0" type="curve" smooth="yes"/>
      <point x="829.0" y="204.0"/>
      <point x="878.0" y="368.0"/>
      <point x="878.0" y="511.0" type="curve" smooth="yes"/>
      <point x="878.0" y="669.0"/>
      <point x="819.0" y="823.0"/>
      <point x="637.0" y="823.0" type="curve" smooth="yes"/>
      <point x="465.0" y="823.0"/>
      <point x="408.0" y="677.0"/>
      <point x="408.0" y="529.0" type="curve" smooth="yes"/>
      <point x="408.0" y="374.0"/>
      <point x="455.0" y="204.0"/>
    </contour>
  </outline>
</glyph>
<glyph name="q" format="1">
  <advance width="1253.0"/>
  <unicode hex="0071"/>
  <outline>
    <contour>
      <point x="852" y="-382" type="line"/>
      <point x="852" y="86" type="line"/>
      <point x="887" y="67" type="line"/>
      <point x="808" y="9"/>
      <point x="727" y="-23"/>
      <point x="595" y="-23" type="curve" smooth="yes"/>
      <point x="243" y="-23"/>
      <point x="108" y="278"/>
      <point x="108" y="537" type="curve" smooth="yes"/>
      <point x="108" y="787"/>
      <point x="268" y="1052"/>
      <point x="594" y="1052" type="curve" smooth="yes"/>
      <point x="706" y="1052"/>
      <point x="816" y="986"/>
      <point x="880" y="904" type="curve"/>
      <point x="854" y="894" type="line"/>
      <point x="854" y="1026" type="line"/>
      <point x="1143" y="1026" type="line"/>
      <point x="1132" y="874"/>
      <point x="1131" y="838"/>
      <point x="1131" y="696" type="curve" smooth="yes"/>
      <point x="1131" y="-382" type="line"/>
    </contour>
    <contour>
      <point x="637.0" y="204.0" type="curve" smooth="yes"/>
      <point x="819.0" y="204.0"/>
      <point x="872.0" y="364.0"/>
      <point x="872.0" y="499.0" type="curve" smooth="yes"/>
      <point x="872.0" y="665.0"/>
      <point x="811.0" y="823.0"/>
      <point x="631.0" y="823.0" type="curve" smooth="yes"/>
      <point x="457.0" y="823.0"/>
      <point x="402.0" y="673.0"/>
      <point x="402.0" y="521.0" type="curve" smooth="yes"/>
      <point x="402.0" y="372.0"/>
      <point x="449.0" y="204.0"/>
    </contour>
  </outline>
</glyph>
<glyph name="s" format="1">
  <advance width="1053.0"/>
  <unicode hex="0073"/>
  <outline>
    <contour>
      <point x="573.0" y="-23.0" type="curve" smooth="yes"/>
      <point x="390.0" y="-23.0"/>
      <point x="219.0" y="30.0"/>
      <point x="116.0" y="109.0" type="curve"/>
      <point x="185.0" y="321.0" type="line"/>
      <point x="284.0" y="246.0"/>
      <point x="435.0" y="207.0"/>
      <point x="546.0" y="207.0" type="curve" smooth="yes"/>
      <point x="652.0" y="207.0"/>
      <point x="699.0" y="239.0"/>
      <point x="699.0" y="299.0" type="curve" smooth="yes"/>
      <point x="699.0" y="312.0"/>
      <point x="694.0" y="343.0"/>
      <point x="551.0" y="392.0" type="curve" smooth="yes"/>
      <point x="337.0" y="464.0"/>
      <point x="131.0" y="511.0"/>
      <point x="131.0" y="746.0" type="curve" smooth="yes"/>
      <point x="131.0" y="969.0"/>
      <point x="308.0" y="1048.0"/>
      <point x="528.0" y="1048.0" type="curve" smooth="yes"/>
      <point x="624.0" y="1048.0"/>
      <point x="783.0" y="1030.0"/>
      <point x="914.0" y="945.0" type="curve"/>
      <point x="843.0" y="747.0" type="line"/>
      <point x="735.0" y="803.0"/>
      <point x="609.0" y="826.0"/>
      <point x="536.0" y="826.0" type="curve" smooth="yes"/>
      <point x="466.0" y="826.0"/>
      <point x="405.0" y="795.0"/>
      <point x="406.0" y="748.0" type="curve" smooth="yes"/>
      <point x="407.0" y="719.0"/>
      <point x="445.0" y="700.0"/>
      <point x="573.0" y="654.0" type="curve" smooth="yes"/>
      <point x="786.0" y="578.0"/>
      <point x="959.0" y="533.0"/>
      <point x="959.0" y="293.0" type="curve" smooth="yes"/>
      <point x="959.0" y="50.0"/>
      <point x="741.0" y="-23.0"/>
    </contour>
  </outline>
</glyph>
<glyph name="u" format="1">
  <advance width="1166.0"/>
  <unicode hex="0075"/>
  <outline>
    <contour>
      <point x="511.0" y="-23.0" type="curve" smooth="yes"/>
      <point x="283.0" y="-23.0"/>
      <point x="120.0" y="108.0"/>
      <point x="120.0" y="367.0" type="curve" smooth="yes"/>
      <point x="120.0" y="1026.0" type="line"/>
      <point x="400.0" y="1026.0" type="line"/>
      <point x="400.0" y="372.0" type="line" smooth="yes"/>
      <point x="400.0" y="253.0"/>
      <point x="475.0" y="204.0"/>
      <point x="570.0" y="204.0" type="curve" smooth="yes"/>
      <point x="696.0" y="204.0"/>
      <point x="753.0" y="246.0"/>
      <point x="753.0" y="408.0" type="curve" smooth="yes"/>
      <point x="753.0" y="1026.0" type="line"/>
      <point x="1037.0" y="1026.0" type="line"/>
      <point x="1037.0" y="290.0" type="line" smooth="yes"/>
      <point x="1037.0" y="251.0"/>
      <point x="1054.0" y="-56.0"/>
      <point x="1050.0" y="0.0" type="curve"/>
      <point x="757.0" y="0.0" type="line"/>
      <point x="753.0" y="146.0" type="line"/>
      <point x="763.0" y="123.0"/>
      <point x="698.0" y="-23.0"/>
    </contour>
  </outline>
</glyph>
<glyph name="x" format="1">
  <advance width="1026.0"/>
  <unicode hex="0078"/>
  <outline>
    <contour>
      <point x="6.0" y="0.0" type="line"/>
      <point x="355.0" y="492.0" type="line"/>
      <point x="18.0" y="1024.0" type="line"/>
      <point x="333.0" y="1026.0" type="line"/>
      <point x="520.0" y="723.0" type="line"/>
      <point x="735.0" y="1026.0" type="line"/>
      <point x="1023.0" y="1026.0" type="line"/>
      <point x="676.0" y="540.0" type="line"/>
      <point x="1020.0" y="0.0" type="line"/>
      <point x="706.0" y="0.0" type="line"/>
      <point x="512.0" y="309.0" type="line"/>
      <point x="300.0" y="0.0" type="line"/>
    </contour>
  </outline>
</glyph>
<glyph name="y" format="1">
  <advance width="1148.0"/>
  <unicode hex="0079"/>
  <outline>
    <contour>
      <point x="277.0" y="-453.0" type="curve"/>
      <point x="156.0" y="-261.0" type="line"/>
      <point x="334.0" y="-184.0"/>
      <point x="424.0" y="-132.0"/>
      <point x="454.0" y="-19.0" type="curve"/>
      <point x="466.0" y="31.0" type="line"/>
      <point x="22.0" y="1026.0" type="line"/>
      <point x="315.0" y="1026.0" type="line"/>
      <point x="602.0" y="338.0" type="line"/>
      <point x="834.0" y="1026.0" type="line"/>
      <point x="1124.0" y="1026.0" type="line"/>
      <point x="708.0" y="-58.0" type="line"/>
      <point x="613.0" y="-300.0"/>
      <point x="429.0" y="-397.0"/>
    </contour>
  </outline>
</glyph>
<glyph name="z" format="1">
  <advance width="1014.0"/>
  <unicode hex="007A"/>
  <outline>
    <contour>
      <point x="104.0" y="0.0" type="line"/>
      <point x="104.0" y="149.0" type="line"/>
      <point x="551.0" y="801.0" type="line"/>
      <point x="138.0" y="801.0" type="line"/>
      <point x="138.0" y="1026.0" type="line"/>
      <point x="921.0" y="1026.0" type="line"/>
      <point x="921.0" y="879.0" type="line"/>
      <point x="467.0" y="224.0" type="line"/>
      <point x="950.0" y="224.0" type="line"/>
      <point x="950.0" y="0.0" type="line"/>
    </contour>
  </outline>
</glyph>
<glyph name="asciitilde" format="1">
  <advance width="1651.0"/>
  <unicode hex="007E"/>
  <outline>
    <contour>
      <point x="483.0" y="315.0" type="curve"/>
      <point x="254.0" y="425.0" type="line"/>
      <point x="284.0" y="587.0"/>
      <point x="425.0" y="760.0"/>
      <point x="611.0" y="760.0" type="curve" smooth="yes"/>
      <point x="706.0" y="760.0"/>
      <point x="827.0" y="697.0"/>
      <point x="921.0" y="649.0" type="curve"/>
      <point x="867.0" y="671.0"/>
      <point x="1019.0" y="596.0"/>
      <point x="1036.0" y="596.0" type="curve" smooth="yes"/>
      <point x="1078.0" y="596.0"/>
      <point x="1124.0" y="683.0"/>
      <point x="1145.0" y="774.0" type="curve"/>
      <point x="1395.0" y="699.0" type="line"/>
      <point x="1354.0" y="509.0"/>
      <point x="1224.0" y="365.0"/>
      <point x="1040.0" y="365.0" type="curve" smooth="yes"/>
      <point x="974.0" y="365.0"/>
      <point x="887.0" y="407.0"/>
      <point x="805.0" y="455.0" type="curve"/>
      <point x="859.0" y="433.0"/>
      <point x="652.0" y="531.0"/>
      <point x="619.0" y="531.0" type="curve" smooth="yes"/>
      <point x="561.0" y="531.0"/>
      <point x="509.0" y="410.0"/>
    </contour>
  </outline>
</glyph>
<glyph name="sterling" format="1">
  <advance width="1285.0"/>
  <unicode hex="00A3"/>
  <outline>
    <contour>
      <point x="151.0" y="0.0" type="line"/>
      <point x="151.0" y="207.0" type="line"/>
      <point x="208.0" y="274.0"/>
      <point x="338.0" y="293.0"/>
      <point x="338.0" y="640.0" type="curve" smooth="yes"/>
      <point x="338.0" y="641.0" type="line"/>
      <point x="156.0" y="641.0" type="line"/>
      <point x="156.0" y="856.0" type="line"/>
      <point x="333.0" y="856.0" type="line"/>
      <point x="333.0" y="865.0" type="line" smooth="yes"/>
      <point x="333.0" y="1200.0"/>
      <point x="408.0" y="1487.0"/>
      <point x="841.0" y="1487.0" type="curve" smooth="yes"/>
      <point x="966.0" y="1487.0"/>
      <point x="1076.0" y="1472.0"/>
      <point x="1192.0" y="1414.0" type="curve"/>
      <point x="1125.0" y="1194.0" type="line"/>
      <point x="1016.0" y="1240.0"/>
      <point x="950.0" y="1256.0"/>
      <point x="866.0" y="1258.0" type="curve" smooth="yes"/>
      <point x="703.0" y="1262.0"/>
      <point x="618.0" y="1191.0"/>
      <point x="618.0" y="929.0" type="curve" smooth="yes"/>
      <point x="618.0" y="856.0" type="line"/>
      <point x="943.0" y="856.0" type="line"/>
      <point x="943.0" y="641.0" type="line"/>
      <point x="616.0" y="641.0" type="line"/>
      <point x="616.0" y="634.0" type="line" smooth="yes"/>
      <point x="616.0" y="478.0"/>
      <point x="617.0" y="337.0"/>
      <point x="547.0" y="231.0" type="curve"/>
      <point x="1199.0" y="231.0" type="line"/>
      <point x="1199.0" y="0.0" type="line"/>
    </contour>
  </outline>
</glyph>
<glyph name="currency" format="1">
  <advance width="1218.0"/>
  <unicode hex="00A4"/>
  <outline>
    <contour>
      <point x="1048.0" y="541.0" type="line"/>
      <point x="862.0" y="727.0" type="line"/>
      <point x="794.0" y="671.0"/>
      <point x="706.0" y="637.0"/>
      <point x="610.0" y="637.0" type="curve" smooth="yes"/>
      <point x="514.0" y="637.0"/>
      <point x="426.0" y="671.0"/>
      <point x="358.0" y="728.0" type="curve"/>
      <point x="171.0" y="541.0" type="line"/>
      <point x="120.0" y="592.0" type="line"/>
      <point x="307.0" y="779.0" type="line"/>
      <point x="252.0" y="845.0"/>
      <point x="219.0" y="929.0"/>
      <point x="219.0" y="1022.0" type="curve" smooth="yes"/>
      <point x="219.0" y="1119.0"/>
      <point x="255.0" y="1207.0"/>
      <point x="314.0" y="1274.0" type="curve"/>
      <point x="119.0" y="1469.0" type="line"/>
      <point x="170.0" y="1520.0" type="line"/>
      <point x="367.0" y="1324.0" type="line"/>
      <point x="433.0" y="1376.0"/>
      <point x="518.0" y="1407.0"/>
      <point x="610.0" y="1407.0" type="curve" smooth="yes"/>
      <point x="702.0" y="1407.0"/>
      <point x="786.0" y="1376.0"/>
      <point x="853.0" y="1325.0" type="curve"/>
      <point x="1048.0" y="1520.0" type="line"/>
      <point x="1099.0" y="1469.0" type="line"/>
      <point x="906.0" y="1276.0" type="line"/>
      <point x="966.0" y="1208.0"/>
      <point x="1002.0" y="1120.0"/>
      <point x="1002.0" y="1022.0" type="curve" smooth="yes"/>
      <point x="1002.0" y="929.0"/>
      <point x="969.0" y="844.0"/>
      <point x="913.0" y="777.0" type="curve"/>
      <point x="1099.0" y="592.0" type="line"/>
    </contour>
    <contour>
      <point x="609.0" y="708.0" type="curve" smooth="yes"/>
      <point x="783.0" y="708.0"/>
      <point x="911.0" y="843.0"/>
      <point x="911.0" y="1017.0" type="curve" smooth="yes"/>
      <point x="911.0" y="1191.0"/>
      <point x="783.0" y="1329.0"/>
      <point x="609.0" y="1329.0" type="curve" smooth="yes"/>
      <point x="435.0" y="1329.0"/>
      <point x="307.0" y="1191.0"/>
      <point x="307.0" y="1017.0" type="curve" smooth="yes"/>
      <point x="307.0" y="843.0"/>
      <point x="435.0" y="708.0"/>
    </contour>
  </outline>
</glyph>
<glyph name="brokenbar" format="1">
  <advance width="500.0"/>
  <unicode hex="00A6"/>
  <outline>
    <contour>
      <point x="93.0" y="-440.0" type="line"/>
      <point x="93.0" y="424.0" type="line"/>
      <point x="366.0" y="424.0" type="line"/>
      <point x="366.0" y="-440.0" type="line"/>
    </contour>
    <contour>
      <point x="89.0" y="517.0" type="line"/>
      <point x="89.0" y="1490.0" type="line"/>
      <point x="364.0" y="1490.0" type="line"/>
      <point x="364.0" y="517.0" type="line"/>
    </contour>
  </outline>
</glyph>
<glyph name="dieresis" format="1">
  <advance width="743.0"/>
  <unicode hex="00A8"/>
  <outline>
    <contour>
      <point x="-33.0" y="1102.0" type="line"/>
      <point x="-33.0" y="1360.0" type="line"/>
      <point x="249.0" y="1360.0" type="line"/>
      <point x="249.0" y="1102.0" type="line"/>
    </contour>
    <contour>
      <point x="490.0" y="1102.0" type="line"/>
      <point x="490.0" y="1360.0" type="line"/>
      <point x="771.0" y="1360.0" type="line"/>
      <point x="771.0" y="1102.0" type="line"/>
    </contour>
  </outline>
</glyph>
<glyph name="ordfeminine" format="1">
  <advance width="911.0"/>
  <unicode hex="00AA"/>
  <outline>
    <contour>
      <point x="357.0" y="703.0" type="curve" smooth="yes"/>
      <point x="500.0" y="703.0"/>
      <point x="563.0" y="794.0"/>
      <point x="571.0" y="842.0" type="curve"/>
      <point x="592.0" y="742.0" type="line"/>
      <point x="793.0" y="742.0" type="line"/>
      <point x="792.0" y="735.0"/>
      <point x="788.0" y="751.0"/>
      <point x="784.0" y="906.0" type="curve" smooth="yes"/>
      <point x="783.0" y="1007.0"/>
      <point x="778.0" y="933.0"/>
      <point x="778.0" y="1165.0" type="curve" smooth="yes"/>
      <point x="778.0" y="1408.0"/>
      <point x="628.0" y="1478.0"/>
      <point x="460.0" y="1478.0" type="curve" smooth="yes"/>
      <point x="265.0" y="1478.0"/>
      <point x="144.0" y="1407.0"/>
      <point x="144.0" y="1407.0" type="curve"/>
      <point x="211.0" y="1246.0" type="line"/>
      <point x="211.0" y="1246.0"/>
      <point x="338.0" y="1299.0"/>
      <point x="432.0" y="1299.0" type="curve" smooth="yes"/>
      <point x="487.0" y="1299.0"/>
      <point x="554.0" y="1276.0"/>
      <point x="554.0" y="1192.0" type="curve" smooth="yes"/>
      <point x="554.0" y="1142.0" type="line"/>
      <point x="373.0" y="1142.0" type="line" smooth="yes"/>
      <point x="200.0" y="1142.0"/>
      <point x="116.0" y="1063.0"/>
      <point x="116.0" y="921.0" type="curve" smooth="yes"/>
      <point x="116.0" y="770.0"/>
      <point x="241.0" y="703.0"/>
    </contour>
    <contour>
      <point x="369.0" y="844.0" type="curve" smooth="yes"/>
      <point x="344.0" y="844.0"/>
      <point x="300.0" y="875.0"/>
      <point x="300.0" y="920.0" type="curve" smooth="yes"/>
      <point x="300.0" y="1012.0"/>
      <point x="342.0" y="1023.0"/>
      <point x="550.0" y="1023.0" type="curve"/>
      <point x="550.0" y="1020.0"/>
      <point x="550.0" y="1016.0"/>
      <point x="550.0" y="1013.0" type="curve" smooth="yes"/>
      <point x="550.0" y="872.0"/>
      <point x="416.0" y="844.0"/>
    </contour>
  </outline>
</glyph>
<glyph name="logicalnot" format="1">
  <advance width="1454.0"/>
  <unicode hex="00AC"/>
  <outline>
    <contour>
      <point x="949.0" y="213.0" type="line"/>
      <point x="949.0" y="588.0" type="line"/>
      <point x="143.0" y="588.0" type="line"/>
      <point x="143.0" y="822.0" type="line"/>
      <point x="1216.0" y="822.0" type="line"/>
      <point x="1216.0" y="213.0" type="line"/>
    </contour>
  </outline>
</glyph>
<glyph name="degree" format="1">
  <advance width="904.0"/>
  <unicode hex="00B0"/>
  <outline>
    <contour>
      <point x="452.0" y="1475.0" type="curve" smooth="yes"/>
      <point x="283.0" y="1475.0"/>
      <point x="132.0" y="1337.0"/>
      <point x="132.0" y="1160.0" type="curve" smooth="yes"/>
      <point x="132.0" y="982.0"/>
      <point x="281.0" y="846.0"/>
      <point x="452.0" y="846.0" type="curve" smooth="yes"/>
      <point x="624.0" y="846.0"/>
      <point x="772.0" y="982.0"/>
      <point x="772.0" y="1160.0" type="curve" smooth="yes"/>
      <point x="772.0" y="1337.0"/>
      <point x="624.0" y="1475.0"/>
    </contour>
    <contour>
      <point x="452.0" y="995.0" type="curve" smooth="yes"/>
      <point x="369.0" y="995.0"/>
      <point x="293.0" y="1063.0"/>
      <point x="293.0" y="1160.0" type="curve" smooth="yes"/>
      <point x="293.0" y="1256.0"/>
      <point x="367.0" y="1324.0"/>
      <point x="452.0" y="1324.0" type="curve" smooth="yes"/>
      <point x="541.0" y="1324.0"/>
      <point x="615.0" y="1256.0"/>
      <point x="615.0" y="1160.0" type="curve" smooth="yes"/>
      <point x="615.0" y="1063.0"/>
      <point x="539.0" y="995.0"/>
    </contour>
  </outline>
</glyph>
<glyph name="plusminus" format="1">
  <advance width="1294.0"/>
  <unicode hex="00B1"/>
  <outline>
    <contour>
      <point x="504.0" y="312.0" type="line"/>
      <point x="504.0" y="590.0" type="line"/>
      <point x="189.0" y="590.0" type="line"/>
      <point x="189.0" y="818.0" type="line"/>
      <point x="497.0" y="818.0" type="line"/>
      <point x="497.0" y="1103.0" type="line"/>
      <point x="771.0" y="1103.0" type="line"/>
      <point x="771.0" y="818.0" type="line"/>
      <point x="1102.0" y="818.0" type="line"/>
      <point x="1102.0" y="590.0" type="line"/>
      <point x="784.0" y="590.0" type="line"/>
      <point x="784.0" y="312.0" type="line"/>
    </contour>
    <contour>
      <point x="195.0" y="0.0" type="line"/>
      <point x="195.0" y="202.0" type="line"/>
      <point x="1094.0" y="202.0" type="line"/>
      <point x="1094.0" y="0.0" type="line"/>
    </contour>
  </outline>
</glyph>
<glyph name="paragraph" format="1">
  <advance width="1235.0"/>
  <unicode hex="00B6"/>
  <outline>
    <contour>
      <point x="395.0" y="-178.0" type="line"/>
      <point x="395.0" y="776.0" type="line"/>
      <point x="164.0" y="802.0"/>
      <point x="80.0" y="927.0"/>
      <point x="80.0" y="1126.0" type="curve" smooth="yes"/>
      <point x="80.0" y="1392.0"/>
      <point x="287.0" y="1455.0"/>
      <point x="565.0" y="1455.0" type="curve" smooth="yes"/>
      <point x="1083.0" y="1455.0" type="line"/>
      <point x="1083.0" y="1235.0" type="line"/>
      <point x="1004.0" y="1235.0" type="line"/>
      <point x="1004.0" y="-178.0" type="line"/>
      <point x="772.0" y="-178.0" type="line"/>
      <point x="772.0" y="1235.0" type="line"/>
      <point x="627.0" y="1235.0" type="line"/>
      <point x="627.0" y="-178.0" type="line"/>
    </contour>
  </outline>
</glyph>
<glyph name="ordmasculine" format="1">
  <advance width="930.0"/>
  <unicode hex="00BA"/>
  <outline>
    <contour>
      <point x="463.0" y="868.0" type="curve" smooth="yes"/>
      <point x="568.0" y="868.0"/>
      <point x="643.0" y="944.0"/>
      <point x="643.0" y="1057.0" type="curve" smooth="yes"/>
      <point x="643.0" y="1180.0"/>
      <point x="570.0" y="1251.0"/>
      <point x="468.0" y="1251.0" type="curve" smooth="yes"/>
      <point x="365.0" y="1251.0"/>
      <point x="286.0" y="1175.0"/>
      <point x="286.0" y="1060.0" type="curve" smooth="yes"/>
      <point x="286.0" y="941.0"/>
      <point x="355.0" y="868.0"/>
    </contour>
    <contour>
      <point x="470.0" y="688.0" type="curve" smooth="yes"/>
      <point x="207.0" y="688.0"/>
      <point x="72.0" y="848.0"/>
      <point x="72.0" y="1060.0" type="curve" smooth="yes"/>
      <point x="72.0" y="1266.0"/>
      <point x="218.0" y="1427.0"/>
      <point x="465.0" y="1427.0" type="curve" smooth="yes"/>
      <point x="714.0" y="1427.0"/>
      <point x="858.0" y="1260.0"/>
      <point x="858.0" y="1056.0" type="curve" smooth="yes"/>
      <point x="858.0" y="856.0"/>
      <point x="720.0" y="688.0"/>
    </contour>
  </outline>
</glyph>
<glyph name="guillemotright" format="1">
  <advance width="1212.0"/>
  <unicode hex="00BB"/>
  <outline>
    <contour>
      <point x="818.0" y="925.0" type="line"/>
      <point x="1100.0" y="538.0" type="line"/>
      <point x="812.0" y="152.0" type="line"/>
      <point x="591.0" y="152.0" type="line"/>
      <point x="825.0" y="539.0" type="line"/>
      <point x="599.0" y="925.0" type="line"/>
    </contour>
    <contour>
      <point x="371.0" y="925.0" type="line"/>
      <point x="651.0" y="538.0" type="line"/>
      <point x="365.0" y="152.0" type="line"/>
      <point x="144.0" y="152.0" type="line"/>
      <point x="376.0" y="539.0" type="line"/>
      <point x="152.0" y="925.0" type="line"/>
    </contour>
  </outline>
</glyph>
<glyph name="multiply" format="1">
  <advance width="1296.0"/>
  <unicode hex="00D7"/>
  <outline>
    <contour>
      <point x="391.0" y="100.0" type="line"/>
      <point x="204.0" y="287.0" type="line"/>
      <point x="461.0" y="544.0" type="line"/>
      <point x="204.0" y="801.0" type="line"/>
      <point x="391.0" y="988.0" type="line"/>
      <point x="648.0" y="731.0" type="line"/>
      <point x="906.0" y="988.0" type="line"/>
      <point x="1090.0" y="804.0" type="line"/>
      <point x="832.0" y="544.0" type="line"/>
      <point x="1090.0" y="284.0" type="line"/>
      <point x="906.0" y="100.0" type="line"/>
      <point x="648.0" y="359.0" type="line"/>
    </contour>
  </outline>
</glyph>
<glyph name="Oslash" format="1">
  <advance width="1663.0"/>
  <unicode hex="00D8"/>
  <outline>
    <contour>
      <point x="462.0" y="-129.0" type="line"/>
      <point x="335.0" y="-77.0" type="line"/>
      <point x="1231.0" y="1584.0" type="line"/>
      <point x="1358.0" y="1532.0" type="line"/>
    </contour>
    <component base="O"/>
  </outline>
</glyph>
<glyph name="Thorn" format="1">
  <advance width="1312.0"/>
  <unicode hex="00DE"/>
  <outline>
    <contour>
      <point x="184.0" y="0.0" type="line"/>
      <point x="184.0" y="1456.0" type="line"/>
      <point x="471.0" y="1456.0" type="line"/>
      <point x="471.0" y="1224.0" type="line"/>
      <point x="616.0" y="1224.0" type="line" smooth="yes"/>
      <point x="961.0" y="1224.0"/>
      <point x="1230.0" y="1149.0"/>
      <point x="1230.0" y="770.0" type="curve" smooth="yes"/>
      <point x="1230.0" y="452.0"/>
      <point x="938.0" y="321.0"/>
      <point x="620.0" y="321.0" type="curve" smooth="yes"/>
      <point x="467.0" y="321.0" type="line"/>
      <point x="467.0" y="0.0" type="line"/>
    </contour>
    <contour>
      <point x="467.0" y="566.0" type="line"/>
      <point x="669.0" y="566.0" type="line" smooth="yes"/>
      <point x="829.0" y="566.0"/>
      <point x="920.0" y="627.0"/>
      <point x="920.0" y="772.0" type="curve" smooth="yes"/>
      <point x="920.0" y="944.0"/>
      <point x="814.0" y="981.0"/>
      <point x="626.0" y="981.0" type="curve" smooth="yes"/>
      <point x="467.0" y="981.0" type="line"/>
    </contour>
  </outline>
</glyph>
<glyph name="germandbls" format="1">
  <advance width="1274.01243614"/>
  <unicode hex="00DF"/>
  <outline>
    <contour>
      <point x="840.012436131" y="-22.0" type="curve" smooth="yes"/>
      <point x="1049.01243614" y="-22.0"/>
      <point x="1208.01243614" y="123.0"/>
      <point x="1208.01243614" y="360.0" type="curve" smooth="yes"/>
      <point x="1208.01243614" y="554.0"/>
      <point x="1095.01243614" y="702.0"/>
      <point x="912.012436131" y="761.0" type="curve" smooth="yes"/>
      <point x="853.012436131" y="781.0"/>
      <point x="821.012436131" y="788.0"/>
      <point x="762.012436131" y="802.0" type="curve"/>
      <point x="818.012436131" y="818.0"/>
      <point x="844.012436131" y="826.0"/>
      <point x="895.012436131" y="852.0" type="curve" smooth="yes"/>
      <point x="1000.01243613" y="906.0"/>
      <point x="1059.01243614" y="1056.0"/>
      <point x="1059.01243614" y="1151.0" type="curve" smooth="yes"/>
      <point x="1059.01243614" y="1332.0"/>
      <point x="864.012436131" y="1465.0"/>
      <point x="608.012436131" y="1465.0" type="curve" smooth="yes"/>
      <point x="325.012436131" y="1465.0"/>
      <point x="129.012436131" y="1325.0"/>
      <point x="130.012436131" y="985.0" type="curve" smooth="yes"/>
      <point x="135.012436131" y="0.0" type="line"/>
      <point x="408.012436131" y="0.0" type="line"/>
      <point x="408.012436131" y="983.0" type="line" smooth="yes"/>
      <point x="408.012436131" y="1167.0"/>
      <point x="503.012436131" y="1237.0"/>
      <point x="609.012436131" y="1237.0" type="curve" smooth="yes"/>
      <point x="659.012436131" y="1237.0"/>
      <point x="744.012436131" y="1203.0"/>
      <point x="744.012436131" y="1130.0" type="curve" smooth="yes"/>
      <point x="744.012436131" y="1031.0"/>
      <point x="619.012436131" y="921.0"/>
      <point x="578.012436131" y="901.0" type="curve"/>
      <point x="578.012436131" y="683.0" type="line"/>
      <point x="838.012436131" y="546.0"/>
      <point x="886.012436131" y="470.0"/>
      <point x="886.012436131" y="338.0" type="curve" smooth="yes"/>
      <point x="886.012436131" y="252.0"/>
      <point x="863.012436131" y="224.0"/>
      <point x="805.012436131" y="206.0" type="curve" smooth="yes"/>
      <point x="706.012436131" y="181.0"/>
      <point x="570.012436131" y="257.0"/>
      <point x="570.012436131" y="257.0" type="curve"/>
      <point x="517.012436131" y="37.0" type="line"/>
      <point x="517.012436131" y="37.0"/>
      <point x="666.012436131" y="-22.0"/>
    </contour>
  </outline>
</glyph>
<glyph name="ae" format="1">
  <advance width="1769.0"/>
  <unicode hex="00E6"/>
  <outline>
    <contour>
      <point x="490.0" y="-19.0" type="curve" smooth="yes"/>
      <point x="598.0" y="-19.0"/>
      <point x="777.0" y="35.0"/>
      <point x="850.0" y="187.0" type="curve"/>
      <point x="931.0" y="42.0"/>
      <point x="1066.0" y="-27.0"/>
      <point x="1261.0" y="-23.0" type="curve" smooth="yes"/>
      <point x="1457.0" y="-15.0"/>
      <point x="1642.0" y="111.0"/>
      <point x="1642.0" y="111.0" type="curve"/>
      <point x="1567.0" y="317.0" type="line"/>
      <point x="1567.0" y="317.0"/>
      <point x="1410.0" y="218.0"/>
      <point x="1268.0" y="204.0" type="curve" smooth="yes"/>
      <point x="1126.0" y="190.0"/>
      <point x="1009.0" y="234.0"/>
      <point x="983.0" y="442.0" type="curve"/>
      <point x="983.0" y="457.0" type="line"/>
      <point x="1637.0" y="457.0" type="line"/>
      <point x="1637.0" y="457.0"/>
      <point x="1646.0" y="482.0"/>
      <point x="1646.0" y="518.0" type="curve" smooth="yes"/>
      <point x="1646.0" y="795.0"/>
      <point x="1517.0" y="1044.0"/>
      <point x="1204.0" y="1052.0" type="curve" smooth="yes"/>
      <point x="1054.0" y="1056.0"/>
      <point x="962.0" y="999.0"/>
      <point x="877.0" y="917.0" type="curve"/>
      <point x="804.0" y="1016.0"/>
      <point x="654.0" y="1052.0"/>
      <point x="574.0" y="1052.0" type="curve" smooth="yes"/>
      <point x="334.0" y="1052.0"/>
      <point x="224.0" y="977.0"/>
      <point x="157.0" y="936.0" type="curve"/>
      <point x="237.0" y="754.0" type="line"/>
      <point x="437.0" y="849.0"/>
      <point x="480.0" y="833.0"/>
      <point x="499.0" y="833.0" type="curve" smooth="yes"/>
      <point x="636.0" y="833.0"/>
      <point x="712.0" y="751.0"/>
      <point x="713.0" y="650.0" type="curve"/>
      <point x="668.0" y="650.0" type="line" smooth="yes"/>
      <point x="215.0" y="650.0"/>
      <point x="70.0" y="549.0"/>
      <point x="70.0" y="298.0" type="curve" smooth="yes"/>
      <point x="70.0" y="87.0"/>
      <point x="234.0" y="-19.0"/>
    </contour>
    <contour>
      <point x="488.0" y="205.0" type="curve" smooth="yes"/>
      <point x="409.0" y="205.0"/>
      <point x="340.0" y="234.0"/>
      <point x="340.0" y="310.0" type="curve" smooth="yes"/>
      <point x="340.0" y="417.0"/>
      <point x="490.0" y="457.0"/>
      <point x="641.0" y="457.0" type="curve" smooth="yes"/>
      <point x="711.0" y="457.0" type="line"/>
      <point x="706.0" y="347.0"/>
      <point x="657.0" y="205.0"/>
    </contour>
    <contour>
      <point x="986.0" y="643.0" type="line"/>
      <point x="1026.0" y="762.0"/>
      <point x="1097.0" y="837.0"/>
      <point x="1212.0" y="837.0" type="curve" smooth="yes"/>
      <point x="1275.0" y="837.0"/>
      <point x="1383.0" y="782.0"/>
      <point x="1398.0" y="646.0" type="curve" smooth="yes"/>
      <point x="1399.0" y="643.0" type="line"/>
    </contour>
  </outline>
</glyph>
<glyph name="eth" format="1">
  <advance width="1214.0"/>
  <unicode hex="00F0"/>
  <outline>
    <contour>
      <point x="575.0" y="-24.0" type="curve" smooth="yes"/>
      <point x="897.0" y="-24.0"/>
      <point x="1096.0" y="114.0"/>
      <point x="1096.0" y="617.0" type="curve" smooth="yes"/>
      <point x="1096.0" y="1486.0"/>
      <point x="218.0" y="1476.0"/>
      <point x="381.0" y="1408.0" type="curve"/>
      <point x="303.0" y="1229.0" type="line"/>
      <point x="1106.0" y="1044.0"/>
      <point x="790.0" y="680.0"/>
      <point x="831.0" y="859.0" type="curve"/>
      <point x="841.0" y="819.0"/>
      <point x="849.0" y="792.0"/>
      <point x="849.0" y="767.0" type="curve"/>
      <point x="723.0" y="897.0"/>
      <point x="590.0" y="908.0"/>
      <point x="515.0" y="908.0" type="curve" smooth="yes"/>
      <point x="237.0" y="908.0"/>
      <point x="96.0" y="745.0"/>
      <point x="96.0" y="482.0" type="curve" smooth="yes"/>
      <point x="96.0" y="218.0"/>
      <point x="278.0" y="-24.0"/>
    </contour>
    <contour>
      <point x="607.0" y="200.0" type="curve" smooth="yes"/>
      <point x="513.0" y="200.0"/>
      <point x="383.0" y="260.0"/>
      <point x="383.0" y="457.0" type="curve" smooth="yes"/>
      <point x="383.0" y="632.0"/>
      <point x="502.0" y="672.0"/>
      <point x="578.0" y="672.0" type="curve" smooth="yes"/>
      <point x="684.0" y="672.0"/>
      <point x="805.0" y="591.0"/>
      <point x="805.0" y="432.0" type="curve" smooth="yes"/>
      <point x="805.0" y="251.0"/>
      <point x="655.0" y="200.0"/>
    </contour>
    <contour>
      <point x="364.0" y="953.0" type="line"/>
      <point x="1085.0" y="1256.0" type="line"/>
      <point x="1020.0" y="1409.0" type="line"/>
      <point x="299.0" y="1106.0" type="line"/>
    </contour>
  </outline>
</glyph>
<glyph name="thorn" format="1">
  <advance width="1226.0"/>
  <unicode hex="00FE"/>
  <outline>
    <contour>
      <point x="133.0" y="-382.0" type="line"/>
      <point x="133.0" y="1467.0" type="line"/>
      <point x="400.0" y="1467.0" type="line"/>
      <point x="396.0" y="964.0" type="line"/>
      <point x="439.0" y="1014.0"/>
      <point x="577.0" y="1051.0"/>
      <point x="639.0" y="1051.0" type="curve" smooth="yes"/>
      <point x="955.0" y="1051.0"/>
      <point x="1124.0" y="804.0"/>
      <point x="1124.0" y="523.0" type="curve" smooth="yes"/>
      <point x="1124.0" y="240.0"/>
      <point x="964.0" y="-23.0"/>
      <point x="638.0" y="-23.0" type="curve" smooth="yes"/>
      <point x="555.0" y="-23.0"/>
      <point x="450.0" y="10.0"/>
      <point x="394.0" y="43.0" type="curve"/>
      <point x="393.0" y="-382.0" type="line"/>
    </contour>
    <contour>
      <point x="608.0" y="205.0" type="curve" smooth="yes"/>
      <point x="763.0" y="205.0"/>
      <point x="828.0" y="355.0"/>
      <point x="828.0" y="521.0" type="curve" smooth="yes"/>
      <point x="828.0" y="676.0"/>
      <point x="776.0" y="821.0"/>
      <point x="616.0" y="821.0" type="curve" smooth="yes"/>
      <point x="451.0" y="821.0"/>
      <point x="394.0" y="665.0"/>
      <point x="394.0" y="494.0" type="curve" smooth="yes"/>
      <point x="394.0" y="328.0"/>
      <point x="465.0" y="205.0"/>
    </contour>
  </outline>
</glyph>
<glyph name="hbar" format="1">
  <advance width="1165.0"/>
  <unicode hex="0127"/>
  <outline>
    <contour>
      <point x="-50.0" y="1173.0" type="line"/>
      <point x="-50.0" y="1336.0" type="line"/>
      <point x="597.0" y="1336.0" type="line"/>
      <point x="597.0" y="1173.0" type="line"/>
    </contour>
    <component base="h"/>
  </outline>
</glyph>
<glyph name="Eng" format="1">
  <advance width="1652.0"/>
  <unicode hex="014A"/>
  <outline>
    <contour>
      <point x="615.0" y="-471.0" type="curve"/>
      <point x="655.0" y="-252.0" type="line"/>
      <point x="709.755" y="-269.649"/>
      <point x="793.524" y="-286.528"/>
      <point x="876.94" y="-286.528" type="curve" smooth="yes"/>
      <point x="1014.75" y="-286.528"/>
      <point x="1197.0" y="-290.071"/>
      <point x="1187.0" y="-63.0" type="curve" smooth="yes"/>
      <point x="1187.0" y="121.046" type="line"/>
      <point x="608.0" y="886.0" type="line"/>
      <point x="452.0" y="1108.0" type="line"/>
      <point x="452.0" y="0.0" type="line"/>
      <point x="194.0" y="0.0" type="line"/>
      <point x="194.0" y="1456.0" type="line"/>
      <point x="491.0" y="1456.0" type="line"/>
      <point x="1037.0" y="729.0" type="line"/>
      <point x="1185.0" y="514.0" type="line"/>
      <point x="1185.0" y="1456.0" type="line"/>
      <point x="1453.0" y="1456.0" type="line"/>
      <point x="1453.0" y="-55.0" type="line" smooth="yes"/>
      <point x="1453.0" y="-408.0"/>
      <point x="1191.91" y="-509.46"/>
      <point x="888.679" y="-509.46" type="curve" smooth="yes"/>
      <point x="798.987" y="-509.46"/>
      <point x="707.3" y="-496.473"/>
    </contour>
  </outline>
</glyph>
<glyph name="eng" format="1">
  <advance width="1167.0"/>
  <unicode hex="014B"/>
  <outline>
    <contour>
      <point x="215.0" y="-366.0" type="curve"/>
      <point x="255.0" y="-147.0" type="line"/>
      <point x="309.755" y="-164.649"/>
      <point x="393.521" y="-181.528"/>
      <point x="476.94" y="-181.528" type="curve" smooth="yes"/>
      <point x="590.741" y="-181.528"/>
      <point x="771.0" y="-163.071"/>
      <point x="771.0" y="22.0" type="curve" smooth="yes"/>
      <point x="771.0" y="632.0" type="line" smooth="yes"/>
      <point x="771.0" y="791.0"/>
      <point x="728.0" y="825.0"/>
      <point x="634.0" y="825.0" type="curve" smooth="yes"/>
      <point x="587.0" y="825.0"/>
      <point x="428.0" y="778.0"/>
      <point x="428.0" y="598.0" type="curve" smooth="yes"/>
      <point x="428.0" y="0.0" type="line"/>
      <point x="146.0" y="0.0" type="line"/>
      <point x="146.0" y="574.0" type="line" smooth="yes"/>
      <point x="146.0" y="869.0"/>
      <point x="120.0" y="1026.0"/>
      <point x="120.0" y="1026.0" type="curve"/>
      <point x="423.0" y="1026.0" type="line"/>
      <point x="421.0" y="875.0" type="line"/>
      <point x="470.0" y="993.0"/>
      <point x="617.0" y="1052.0"/>
      <point x="694.0" y="1052.0" type="curve" smooth="yes"/>
      <point x="891.0" y="1052.0"/>
      <point x="1055.0" y="984.0"/>
      <point x="1055.0" y="600.0" type="curve" smooth="yes"/>
      <point x="1055.0" y="98.0" type="line" smooth="yes"/>
      <point x="1055.0" y="-254.449"/>
      <point x="791.913" y="-404.46"/>
      <point x="488.679" y="-404.46" type="curve" smooth="yes"/>
      <point x="398.987" y="-404.46"/>
      <point x="307.3" y="-391.473"/>
    </contour>
  </outline>
</glyph>
<glyph name="tbar" format="1">
  <advance width="841.0"/>
  <unicode hex="0167"/>
  <outline>
    <contour>
      <point x="84.0" y="452.0" type="line"/>
      <point x="84.0" y="645.0" type="line"/>
      <point x="693.0" y="645.0" type="line"/>
      <point x="693.0" y="452.0" type="line"/>
    </contour>
    <component base="t"/>
  </outline>
</glyph>
<glyph name="florin" format="1">
  <advance width="1135.0"/>
  <unicode hex="0192"/>
  <outline>
    <contour>
      <point x="205.0" y="-324.0" type="curve" smooth="yes"/>
      <point x="213.0" y="-324.0"/>
      <point x="150.0" y="-323.0"/>
      <point x="95.0" y="-306.0" type="curve"/>
      <point x="114.0" y="-84.0" type="line"/>
      <point x="114.0" y="-84.0"/>
      <point x="163.0" y="-94.0"/>
      <point x="215.0" y="-94.0" type="curve" smooth="yes"/>
      <point x="244.0" y="-94.0"/>
      <point x="315.0" y="-99.0"/>
      <point x="355.0" y="117.0" type="curve" smooth="yes"/>
      <point x="432.0" y="537.0" type="line"/>
      <point x="300.0" y="537.0" type="line"/>
      <point x="349.0" y="719.0" type="line"/>
      <point x="467.0" y="719.0" type="line"/>
      <point x="536.0" y="1097.0" type="line"/>
      <point x="563.0" y="1216.0"/>
      <point x="619.0" y="1440.0"/>
      <point x="907.0" y="1440.0" type="curve" smooth="yes"/>
      <point x="1062.0" y="1440.0"/>
      <point x="1113.0" y="1389.0"/>
      <point x="1113.0" y="1389.0" type="curve"/>
      <point x="1096.0" y="1177.0" type="line"/>
      <point x="1096.0" y="1177.0"/>
      <point x="1025.0" y="1197.0"/>
      <point x="974.0" y="1197.0" type="curve" smooth="yes"/>
      <point x="950.0" y="1197.0"/>
      <point x="869.0" y="1200.0"/>
      <point x="841.0" y="1061.0" type="curve" smooth="yes"/>
      <point x="778.0" y="719.0" type="line"/>
      <point x="916.0" y="719.0" type="line"/>
      <point x="881.0" y="537.0" type="line"/>
      <point x="734.0" y="537.0" type="line"/>
      <point x="639.0" y="23.0" type="line" smooth="yes"/>
      <point x="586.0" y="-271.0"/>
      <point x="404.0" y="-324.0"/>
    </contour>
  </outline>
</glyph>
<glyph name="circumflex" format="1">
  <advance width="699.0"/>
  <unicode hex="02C6"/>
  <outline>
    <contour>
      <point x="198.0" y="1481.0" type="line"/>
      <point x="-73.0" y="1080.0" type="line"/>
      <point x="193.0" y="1080.0" type="line"/>
      <point x="346.0" y="1244.0" type="line"/>
      <point x="495.0" y="1080.0" type="line"/>
      <point x="773.0" y="1080.0" type="line"/>
      <point x="494.0" y="1481.0" type="line"/>
    </contour>
  </outline>
</glyph>
<glyph name="caron" format="1">
  <advance width="699.0"/>
  <unicode hex="02C7"/>
  <outline>
    <contour>
      <point x="242.0" y="1080.0" type="line"/>
      <point x="-54.0" y="1478.0" type="line"/>
      <point x="236.0" y="1478.0" type="line"/>
      <point x="344.0" y="1338.0" type="line"/>
      <point x="452.0" y="1478.0" type="line"/>
      <point x="756.0" y="1478.0" type="line"/>
      <point x="462.0" y="1080.0" type="line"/>
    </contour>
  </outline>
</glyph>
<glyph name="ring" format="1">
  <advance width="792.0"/>
  <unicode hex="02DA"/>
  <outline>
    <contour>
      <point x="397.0" y="1348.0" type="curve" smooth="yes"/>
      <point x="456.0" y="1348.0"/>
      <point x="504.0" y="1302.0"/>
      <point x="504.0" y="1242.0" type="curve" smooth="yes"/>
      <point x="504.0" y="1184.0"/>
      <point x="456.0" y="1135.0"/>
      <point x="397.0" y="1135.0" type="curve" smooth="yes"/>
      <point x="341.0" y="1135.0"/>
      <point x="291.0" y="1184.0"/>
      <point x="291.0" y="1242.0" type="curve" smooth="yes"/>
      <point x="291.0" y="1302.0"/>
      <point x="341.0" y="1348.0"/>
    </contour>
    <contour>
      <point x="393.0" y="1478.0" type="curve" smooth="yes"/>
      <point x="257.0" y="1478.0"/>
      <point x="148.0" y="1380.0"/>
      <point x="148.0" y="1242.0" type="curve" smooth="yes"/>
      <point x="148.0" y="1107.0"/>
      <point x="257.0" y="1008.0"/>
      <point x="393.0" y="1008.0" type="curve" smooth="yes"/>
      <point x="528.0" y="1008.0"/>
      <point x="640.0" y="1107.0"/>
      <point x="640.0" y="1242.0" type="curve" smooth="yes"/>
      <point x="640.0" y="1380.0"/>
      <point x="528.0" y="1478.0"/>
    </contour>
  </outline>
</glyph>
<glyph name="tilde" format="1">
  <advance width="831.0"/>
  <unicode hex="02DC"/>
  <outline>
    <contour>
      <point x="-12.0" y="1089.0" type="line"/>
      <point x="-12.0" y="1299.0"/>
      <point x="103.0" y="1448.0"/>
      <point x="247.0" y="1448.0" type="curve" smooth="yes"/>
      <point x="390.0" y="1448.0"/>
      <point x="497.0" y="1347.0"/>
      <point x="532.0" y="1333.0" type="curve" smooth="yes"/>
      <point x="567.0" y="1323.0"/>
      <point x="638.0" y="1301.0"/>
      <point x="628.0" y="1448.0" type="curve"/>
      <point x="843.0" y="1448.0" type="line"/>
      <point x="843.0" y="1175.0"/>
      <point x="716.0" y="1096.0"/>
      <point x="562.0" y="1084.0" type="curve" smooth="yes"/>
      <point x="447.0" y="1076.0"/>
      <point x="308.0" y="1202.0"/>
      <point x="261.0" y="1202.0" type="curve" smooth="yes"/>
      <point x="264.0" y="1202.0"/>
      <point x="209.0" y="1185.0"/>
      <point x="202.0" y="1089.0" type="curve"/>
    </contour>
  </outline>
</glyph>
<glyph name="emdash" format="1">
  <advance width="2171.0"/>
  <unicode hex="2014"/>
  <outline>
    <contour>
      <point x="52.0" y="438.0" type="line"/>
      <point x="52.0" y="671.0" type="line"/>
      <point x="2129.0" y="671.0" type="line"/>
      <point x="2129.0" y="438.0" type="line"/>
    </contour>
  </outline>
</glyph>
<glyph name="uni2015" format="1">
  <advance width="4096.0"/>
  <unicode hex="2015"/>
  <outline>
    <contour>
      <point x="50.0" y="438.0" type="line"/>
      <point x="50.0" y="647.0" type="line"/>
      <point x="4046.0" y="647.0" type="line"/>
      <point x="4046.0" y="438.0" type="line"/>
    </contour>
  </outline>
</glyph>
<glyph name="quoteright" format="1">
  <advance width="688.0"/>
  <unicode hex="2019"/>
  <outline>
    <contour>
      <point x="108.0" y="857.0" type="line"/>
      <point x="222.0" y="1456.0" type="line"/>
      <point x="530.0" y="1456.0" type="line"/>
      <point x="315.0" y="857.0" type="line"/>
    </contour>
  </outline>
</glyph>
<glyph name="quotedblleft" format="1">
  <advance width="1024.0"/>
  <unicode hex="201C"/>
  <outline>
    <contour>
      <point x="111.0" y="854.0" type="line"/>
      <point x="317.0" y="1456.0" type="line"/>
      <point x="557.0" y="1456.0" type="line"/>
      <point x="440.0" y="854.0" type="line"/>
    </contour>
    <contour>
      <point x="619.0" y="854.0" type="line"/>
      <point x="808.0" y="1456.0" type="line"/>
      <point x="1051.0" y="1456.0" type="line"/>
      <point x="933.0" y="854.0" type="line"/>
    </contour>
  </outline>
</glyph>
<glyph name="quotedblright" format="1">
  <advance width="1024.0"/>
  <unicode hex="201D"/>
  <outline>
    <contour>
      <point x="163.0" y="854.0" type="line"/>
      <point x="276.0" y="1456.0" type="line"/>
      <point x="590.0" y="1456.0" type="line"/>
      <point x="419.0" y="854.0" type="line"/>
    </contour>
    <contour>
      <point x="616.0" y="854.0" type="line"/>
      <point x="734.0" y="1456.0" type="line"/>
      <point x="1043.0" y="1456.0" type="line"/>
      <point x="867.0" y="854.0" type="line"/>
    </contour>
  </outline>
</glyph>
<glyph name="quotedblbase" format="1">
  <advance width="1024.0"/>
  <unicode hex="201E"/>
  <outline>
    <contour>
      <point x="48.0" y="-213.0" type="line"/>
      <point x="162.0" y="287.0" type="line"/>
      <point x="474.0" y="287.0" type="line"/>
      <point x="307.0" y="-213.0" type="line"/>
    </contour>
    <contour>
      <point x="466.0" y="-213.0" type="line"/>
      <point x="581.0" y="287.0" type="line"/>
      <point x="893.0" y="287.0" type="line"/>
      <point x="716.0" y="-213.0" type="line"/>
    </contour>
  </outline>
</glyph>
<glyph name="dagger" format="1">
  <advance width="1022.0"/>
  <unicode hex="2020"/>
  <outline>
    <contour>
      <point x="374.0" y="102.0" type="line"/>
      <point x="374.0" y="837.0" type="line"/>
      <point x="48.0" y="837.0" type="line"/>
      <point x="48.0" y="1062.0" type="line"/>
      <point x="374.0" y="1062.0" type="line"/>
      <point x="374.0" y="1406.0" type="line"/>
      <point x="596.0" y="1406.0" type="line"/>
      <point x="596.0" y="1062.0" type="line"/>
      <point x="919.0" y="1062.0" type="line"/>
      <point x="919.0" y="837.0" type="line"/>
      <point x="606.0" y="837.0" type="line"/>
      <point x="606.0" y="102.0" type="line"/>
    </contour>
  </outline>
</glyph>
<glyph name="perthousand" format="1">
  <advance width="2859.0"/>
  <unicode hex="2030"/>
  <outline>
    <contour>
      <point x="2378.0" y="-17.0" type="curve" smooth="yes"/>
      <point x="2152.0" y="-17.0"/>
      <point x="1995.0" y="145.0"/>
      <point x="1995.0" y="367.0" type="curve" smooth="yes"/>
      <point x="1995.0" y="578.0"/>
      <point x="2145.0" y="750.0"/>
      <point x="2374.0" y="750.0" type="curve" smooth="yes"/>
      <point x="2599.0" y="750.0"/>
      <point x="2757.0" y="574.0"/>
      <point x="2757.0" y="365.0" type="curve" smooth="yes"/>
      <point x="2757.0" y="143.0"/>
      <point x="2606.0" y="-17.0"/>
    </contour>
    <contour>
      <point x="2376.0" y="157.0" type="curve" smooth="yes"/>
      <point x="2461.0" y="157.0"/>
      <point x="2520.0" y="194.0"/>
      <point x="2520.0" y="363.0" type="curve" smooth="yes"/>
      <point x="2520.0" y="510.0"/>
      <point x="2472.0" y="576.0"/>
      <point x="2374.0" y="576.0" type="curve" smooth="yes"/>
      <point x="2280.0" y="576.0"/>
      <point x="2232.0" y="522.0"/>
      <point x="2232.0" y="369.0" type="curve" smooth="yes"/>
      <point x="2232.0" y="204.0"/>
      <point x="2291.0" y="157.0"/>
    </contour>
    <component base="percent"/>
  </outline>
</glyph>
<glyph name="guilsinglleft" format="1">
  <advance width="747.0"/>
  <unicode hex="2039"/>
  <outline>
    <contour>
      <point x="418.0" y="152.0" type="line"/>
      <point x="138.0" y="541.0" type="line"/>
      <point x="426.0" y="925.0" type="line"/>
      <point x="647.0" y="925.0" type="line"/>
      <point x="413.0" y="540.0" type="line"/>
      <point x="639.0" y="152.0" type="line"/>
    </contour>
  </outline>
</glyph>
<glyph name="guilsinglright" format="1">
  <advance width="747.0"/>
  <unicode hex="203A"/>
  <outline>
    <contour>
      <point x="327.0" y="924.0" type="line"/>
      <point x="609.0" y="535.0" type="line"/>
      <point x="321.0" y="151.0" type="line"/>
      <point x="100.0" y="151.0" type="line"/>
      <point x="332.0" y="538.0" type="line"/>
      <point x="108.0" y="924.0" type="line"/>
    </contour>
  </outline>
</glyph>
<glyph name="Euro" format="1">
  <advance width="1190.0"/>
  <unicode hex="20AC"/>
  <outline>
    <contour>
      <point x="702.0" y="-21.0" type="curve" smooth="yes"/>
      <point x="374.0" y="-21.0"/>
      <point x="212.0" y="175.0"/>
      <point x="157.0" y="461.0" type="curve"/>
      <point x="22.0" y="461.0" type="line"/>
      <point x="52.0" y="624.0" type="line"/>
      <point x="135.0" y="624.0" type="line"/>
      <point x="136.0" y="605.0"/>
      <point x="134.0" y="812.0"/>
      <point x="135.0" y="788.0" type="curve"/>
      <point x="15.0" y="788.0" type="line"/>
      <point x="51.0" y="933.0" type="line"/>
      <point x="163.0" y="933.0" type="line"/>
      <point x="229.0" y="1210.0"/>
      <point x="421.0" y="1403.0"/>
      <point x="727.0" y="1403.0" type="curve" smooth="yes"/>
      <point x="870.0" y="1403.0"/>
      <point x="997.0" y="1356.0"/>
      <point x="1095.0" y="1255.0" type="curve"/>
      <point x="1041.0" y="1106.0" type="line"/>
      <point x="928.0" y="1144.0"/>
      <point x="808.0" y="1168.0"/>
      <point x="727.0" y="1168.0" type="curve" smooth="yes"/>
      <point x="591.0" y="1168.0"/>
      <point x="517.0" y="1076.0"/>
      <point x="466.0" y="933.0" type="curve"/>
      <point x="988.0" y="933.0" type="line"/>
      <point x="957.0" y="788.0" type="line"/>
      <point x="433.0" y="788.0" type="line"/>
      <point x="434.0" y="811.0"/>
      <point x="436.0" y="626.0"/>
      <point x="438.0" y="624.0" type="curve"/>
      <point x="958.0" y="624.0" type="line"/>
      <point x="930.0" y="461.0" type="line"/>
      <point x="456.0" y="461.0" type="line"/>
      <point x="487.0" y="316.0"/>
      <point x="574.0" y="220.0"/>
      <point x="716.0" y="220.0" type="curve" smooth="yes"/>
      <point x="785.0" y="220.0"/>
      <point x="899.0" y="233.0"/>
      <point x="1069.0" y="267.0" type="curve"/>
      <point x="1069.0" y="94.0" type="line"/>
      <point x="955.0" y="17.0"/>
      <point x="833.0" y="-21.0"/>
    </contour>
  </outline>
</glyph>
<glyph name="uni2206" format="1">
  <advance width="1307.0"/>
  <unicode hex="2206"/>
  <outline>
    <contour>
      <point x="39.0" y="0.0" type="line"/>
      <point x="1274.0" y="0.0" type="line"/>
      <point x="1274.0" y="119.0" type="line"/>
      <point x="803.0" y="1384.0" type="line"/>
      <point x="511.0" y="1384.0" type="line"/>
      <point x="39.0" y="119.0" type="line"/>
    </contour>
    <contour>
      <point x="453.0" y="276.0" type="line"/>
      <point x="610.0" y="724.0"/>
      <point x="480.0" y="451.0"/>
      <point x="637.0" y="900.0" type="curve"/>
      <point x="807.0" y="442.0"/>
      <point x="682.0" y="730.0"/>
      <point x="852.0" y="276.0" type="curve"/>
    </contour>
  </outline>
</glyph>
<glyph name="product" format="1">
  <advance width="1568.0"/>
  <unicode hex="220F"/>
  <outline>
    <contour>
      <point x="195.0" y="-100.0" type="line"/>
      <point x="195.0" y="1231.0" type="line"/>
      <point x="25.0" y="1231.0" type="line"/>
      <point x="25.0" y="1456.0" type="line"/>
      <point x="1440.0" y="1456.0" type="line"/>
      <point x="1442.0" y="1231.0" type="line"/>
      <point x="1313.0" y="1231.0" type="line"/>
      <point x="1313.0" y="-100.0" type="line"/>
      <point x="989.0" y="-100.0" type="line"/>
      <point x="989.0" y="1231.0" type="line"/>
      <point x="508.0" y="1231.0" type="line"/>
      <point x="508.0" y="-100.0" type="line"/>
    </contour>
  </outline>
</glyph>
<glyph name="summation" format="1">
  <advance width="1301.0"/>
  <unicode hex="2211"/>
  <outline>
    <contour>
      <point x="96.0" y="-267.0" type="line"/>
      <point x="96.0" y="-115.0" type="line"/>
      <point x="608.0" y="599.0" type="line"/>
      <point x="120.0" y="1312.0" type="line"/>
      <point x="120.0" y="1458.0" type="line"/>
      <point x="1181.0" y="1458.0" type="line"/>
      <point x="1181.0" y="1221.0" type="line"/>
      <point x="531.0" y="1221.0" type="line"/>
      <point x="953.0" y="600.0" type="line"/>
      <point x="525.0" y="-21.0" type="line"/>
      <point x="1223.0" y="-21.0" type="line"/>
      <point x="1223.0" y="-267.0" type="line"/>
    </contour>
  </outline>
</glyph>
<glyph name="minus" format="1">
  <advance width="1616.0"/>
  <unicode hex="2212"/>
  <outline>
    <contour>
      <point x="216.0" y="195.0" type="line"/>
      <point x="216.0" y="423.0" type="line"/>
      <point x="1400.0" y="423.0" type="line"/>
      <point x="1400.0" y="195.0" type="line"/>
    </contour>
  </outline>
</glyph>
<glyph name="infinity" format="1">
  <advance width="1749.0"/>
  <unicode hex="221E"/>
  <outline>
    <contour>
      <point x="470.0" y="230.0" type="curve" smooth="yes"/>
      <point x="248.0" y="230.0"/>
      <point x="96.0" y="414.0"/>
      <point x="96.0" y="632.0" type="curve" smooth="yes"/>
      <point x="96.0" y="828.0"/>
      <point x="270.0" y="988.0"/>
      <point x="465.0" y="988.0" type="curve" smooth="yes"/>
      <point x="632.0" y="988.0"/>
      <point x="762.0" y="894.0"/>
      <point x="882.0" y="731.0" type="curve"/>
      <point x="994.0" y="890.0"/>
      <point x="1118.0" y="988.0"/>
      <point x="1291.0" y="988.0" type="curve" smooth="yes"/>
      <point x="1515.0" y="988.0"/>
      <point x="1657.0" y="829.0"/>
      <point x="1657.0" y="611.0" type="curve" smooth="yes"/>
      <point x="1657.0" y="384.0"/>
      <point x="1487.0" y="230.0"/>
      <point x="1289.0" y="230.0" type="curve" smooth="yes"/>
      <point x="1137.0" y="230.0"/>
      <point x="1016.0" y="305.0"/>
      <point x="880.0" y="484.0" type="curve"/>
      <point x="762.0" y="327.0"/>
      <point x="634.0" y="230.0"/>
    </contour>
    <contour>
      <point x="493.0" y="399.0" type="curve" smooth="yes"/>
      <point x="616.0" y="399.0"/>
      <point x="719.0" y="492.0"/>
      <point x="805.0" y="605.0" type="curve"/>
      <point x="719.0" y="724.0"/>
      <point x="616.0" y="815.0"/>
      <point x="483.0" y="815.0" type="curve" smooth="yes"/>
      <point x="346.0" y="815.0"/>
      <point x="282.0" y="721.0"/>
      <point x="282.0" y="607.0" type="curve" smooth="yes"/>
      <point x="282.0" y="502.0"/>
      <point x="356.0" y="399.0"/>
    </contour>
    <contour>
      <point x="1288.0" y="399.0" type="curve" smooth="yes"/>
      <point x="1432.0" y="399.0"/>
      <point x="1478.0" y="503.0"/>
      <point x="1478.0" y="632.0" type="curve" smooth="yes"/>
      <point x="1478.0" y="731.0"/>
      <point x="1409.0" y="815.0"/>
      <point x="1283.0" y="815.0" type="curve" smooth="yes"/>
      <point x="1160.0" y="815.0"/>
      <point x="1048.0" y="715.0"/>
      <point x="969.0" y="607.0" type="curve"/>
      <point x="1083.0" y="472.0"/>
      <point x="1171.0" y="399.0"/>
    </contour>
  </outline>
</glyph>
<glyph name="integral" format="1">
  <advance width="860.0"/>
  <unicode hex="222B"/>
  <outline>
    <contour>
      <point x="231.0" y="-334.0" type="curve" smooth="yes"/>
      <point x="115.0" y="-334.0"/>
      <point x="44.0" y="-304.0"/>
      <point x="44.0" y="-304.0" type="curve"/>
      <point x="44.0" y="-93.0" type="line"/>
      <point x="44.0" y="-93.0"/>
      <point x="137.0" y="-109.0"/>
      <point x="203.0" y="-109.0" type="curve" smooth="yes"/>
      <point x="265.0" y="-109.0"/>
      <point x="277.0" y="-58.0"/>
      <point x="277.0" y="34.0" type="curve" smooth="yes"/>
      <point x="277.0" y="1140.0" type="line" smooth="yes"/>
      <point x="277.0" y="1362.0"/>
      <point x="384.0" y="1527.0"/>
      <point x="615.0" y="1527.0" type="curve" smooth="yes"/>
      <point x="711.0" y="1527.0"/>
      <point x="810.0" y="1500.0"/>
      <point x="810.0" y="1500.0" type="curve"/>
      <point x="810.0" y="1276.0" type="line"/>
      <point x="810.0" y="1276.0"/>
      <point x="715.0" y="1301.0"/>
      <point x="658.0" y="1301.0" type="curve" smooth="yes"/>
      <point x="588.0" y="1301.0"/>
      <point x="563.0" y="1251.0"/>
      <point x="563.0" y="1159.0" type="curve" smooth="yes"/>
      <point x="563.0" y="52.0" type="line" smooth="yes"/>
      <point x="563.0" y="-170.0"/>
      <point x="464.0" y="-334.0"/>
    </contour>
  </outline>
</glyph>
<glyph name="approxequal" format="1">
  <advance width="1351.0"/>
  <unicode hex="2248"/>
  <outline>
    <contour>
      <point x="437.0" y="-113.0" type="curve" smooth="yes"/>
      <point x="546.0" y="-113.0"/>
      <point x="674.0" y="-182.0"/>
      <point x="730.0" y="-200.0" type="curve"/>
      <point x="780.0" y="-189.0"/>
      <point x="823.0" y="-260.0"/>
      <point x="844.0" y="-260.0" type="curve" smooth="yes"/>
      <point x="886.0" y="-260.0"/>
      <point x="918.0" y="-197.0"/>
      <point x="953.0" y="-95.0" type="curve"/>
      <point x="1183.0" y="-160.0" type="line"/>
      <point x="1129.0" y="-343.0"/>
      <point x="1040.0" y="-480.0"/>
      <point x="840.0" y="-480.0" type="curve" smooth="yes"/>
      <point x="774.0" y="-480.0"/>
      <point x="660.0" y="-425.0"/>
      <point x="573.0" y="-375.0" type="curve" smooth="yes"/>
      <point x="531.0" y="-363.0"/>
      <point x="460.0" y="-335.0"/>
      <point x="446.0" y="-335.0" type="curve" smooth="yes"/>
      <point x="385.0" y="-335.0"/>
      <point x="340.0" y="-393.0"/>
      <point x="325.0" y="-510.0" type="curve"/>
      <point x="89.0" y="-429.0" type="line"/>
      <point x="155.0" y="-237.0"/>
      <point x="276.0" y="-113.0"/>
    </contour>
    <contour>
      <point x="333.0" y="1277.0" type="line"/>
      <point x="371.0" y="1355.0"/>
      <point x="393.0" y="1434.0"/>
      <point x="423.0" y="1434.0" type="curve" smooth="yes"/>
      <point x="466.0" y="1434.0"/>
      <point x="501.0" y="1406.0"/>
      <point x="553.0" y="1368.0" type="curve"/>
      <point x="666.0" y="1295.0"/>
      <point x="718.0" y="1286.0"/>
      <point x="835.0" y="1286.0" type="curve" smooth="yes"/>
      <point x="1017.0" y="1286.0"/>
      <point x="1134.0" y="1403.0"/>
      <point x="1178.0" y="1604.0" type="curve"/>
      <point x="948.0" y="1653.0" type="line"/>
      <point x="910.0" y="1549.0"/>
      <point x="874.0" y="1488.0"/>
      <point x="837.0" y="1488.0" type="curve" smooth="yes"/>
      <point x="820.0" y="1488.0"/>
      <point x="755.0" y="1484.0"/>
      <point x="669.0" y="1551.0" type="curve"/>
      <point x="551.0" y="1632.0"/>
      <point x="512.0" y="1638.0"/>
      <point x="430.0" y="1638.0" type="curve" smooth="yes"/>
      <point x="243.0" y="1638.0"/>
      <point x="112.0" y="1514.0"/>
      <point x="82.0" y="1314.0" type="curve"/>
    </contour>
  </outline>
</glyph>
